<svg width="88" height="88" viewBox="0 0 88 88" fill="none" xmlns="http://www.w3.org/2000/svg">
<g filter="url(#filter0_dd_112_768)">
<path d="M4 0H54C70.5685 0 84 13.4315 84 30V80H34C17.4315 80 4 66.5685 4 50V0Z" fill="#2B4DFF"/>
</g>
<path d="M40.8126 53.8333C40.8126 54.5461 41.0957 55.2297 41.5997 55.7337C42.1037 56.2377 42.7873 56.5208 43.5001 56.5208C44.2129 56.5208 44.8964 56.2377 45.4004 55.7337C45.9044 55.2297 46.1876 54.5461 46.1876 53.8333V42.1875H57.8334C58.5462 42.1875 59.2298 41.9043 59.7338 41.4003C60.2378 40.8963 60.5209 40.2128 60.5209 39.5C60.5209 38.7872 60.2378 38.1036 59.7338 37.5996C59.2298 37.0956 58.5462 36.8125 57.8334 36.8125H46.1876V25.1667C46.1876 24.4539 45.9044 23.7703 45.4004 23.2663C44.8964 22.7623 44.2129 22.4792 43.5001 22.4792C42.7873 22.4792 42.1037 22.7623 41.5997 23.2663C41.0957 23.7703 40.8126 24.4539 40.8126 25.1667V36.8125H29.1667C28.454 36.8125 27.7704 37.0956 27.2664 37.5996C26.7624 38.1036 26.4792 38.7872 26.4792 39.5C26.4792 40.2128 26.7624 40.8963 27.2664 41.4003C27.7704 41.9043 28.454 42.1875 29.1667 42.1875H40.8126V53.8333Z" fill="#F8F8F8"/>
<defs>
<filter id="filter0_dd_112_768" x="0" y="0" width="88" height="88" filterUnits="userSpaceOnUse" color-interpolation-filters="sRGB">
<feFlood flood-opacity="0" result="BackgroundImageFix"/>
<feColorMatrix in="SourceAlpha" type="matrix" values="0 0 0 0 0 0 0 0 0 0 0 0 0 0 0 0 0 0 127 0" result="hardAlpha"/>
<feOffset dy="4"/>
<feGaussianBlur stdDeviation="2"/>
<feComposite in2="hardAlpha" operator="out"/>
<feColorMatrix type="matrix" values="0 0 0 0 0 0 0 0 0 0 0 0 0 0 0 0 0 0 0.25 0"/>
<feBlend mode="normal" in2="BackgroundImageFix" result="effect1_dropShadow_112_768"/>
<feColorMatrix in="SourceAlpha" type="matrix" values="0 0 0 0 0 0 0 0 0 0 0 0 0 0 0 0 0 0 127 0" result="hardAlpha"/>
<feOffset dy="4"/>
<feGaussianBlur stdDeviation="2"/>
<feComposite in2="hardAlpha" operator="out"/>
<feColorMatrix type="matrix" values="0 0 0 0 0 0 0 0 0 0 0 0 0 0 0 0 0 0 0.25 0"/>
<feBlend mode="normal" in2="effect1_dropShadow_112_768" result="effect2_dropShadow_112_768"/>
<feBlend mode="normal" in="SourceGraphic" in2="effect2_dropShadow_112_768" result="shape"/>
</filter>
</defs>
</svg>
