<svg width="114" height="114" viewBox="0 0 114 114" fill="none" xmlns="http://www.w3.org/2000/svg">
<path d="M108.269 57.0165C106.757 57.0165 105.308 57.6169 104.239 58.6855C103.171 59.7542 102.57 61.2036 102.57 62.7149V96.905C102.57 98.4163 101.97 99.8657 100.901 100.934C99.8326 102.003 98.3832 102.603 96.8719 102.603H17.095C15.5837 102.603 14.1344 102.003 13.0657 100.934C11.9971 99.8657 11.3967 98.4163 11.3967 96.905V17.1281C11.3967 15.6168 11.9971 14.1674 13.0657 13.0987C14.1344 12.0301 15.5837 11.4297 17.095 11.4297H51.2851C52.7964 11.4297 54.2458 10.8294 55.3145 9.76073C56.3831 8.69208 56.9835 7.24268 56.9835 5.73139C56.9835 4.22009 56.3831 2.7707 55.3145 1.70205C54.2458 0.633401 52.7964 0.033041 51.2851 0.033041H17.095C12.5612 0.033041 8.21297 1.83412 5.00702 5.04006C1.80108 8.24601 0 12.5942 0 17.1281V96.905C0 101.439 1.80108 105.787 5.00702 108.993C8.21297 112.199 12.5612 114 17.095 114H96.8719C101.406 114 105.754 112.199 108.96 108.993C112.166 105.787 113.967 101.439 113.967 96.905V62.7149C113.967 61.2036 113.367 59.7542 112.298 58.6855C111.229 57.6169 109.78 57.0165 108.269 57.0165ZM22.7934 61.3473V85.5083C22.7934 87.0196 23.3938 88.469 24.4624 89.5376C25.531 90.6063 26.9804 91.2066 28.4917 91.2066H52.6527C53.4027 91.2109 54.1461 91.0672 54.8404 90.7836C55.5346 90.5001 56.1661 90.0822 56.6986 89.5541L96.1311 50.0645L112.314 34.2231C112.849 33.6934 113.272 33.0632 113.562 32.3688C113.851 31.6744 114 30.9296 114 30.1773C114 29.4251 113.851 28.6802 113.562 27.9858C113.272 27.2915 112.849 26.6612 112.314 26.1315L88.1534 1.68556C87.6237 1.15146 86.9935 0.72754 86.2991 0.438242C85.6047 0.148945 84.8599 0 84.1076 0C83.3554 0 82.6106 0.148945 81.9162 0.438242C81.2218 0.72754 80.5915 1.15146 80.0618 1.68556L63.9924 17.8119L24.4459 57.3014C23.9178 57.8339 23.4999 58.4654 23.2164 59.1596C22.9328 59.8539 22.7891 60.5973 22.7934 61.3473ZM84.1076 13.7661L100.234 29.8924L92.1423 37.984L76.016 21.8577L84.1076 13.7661ZM34.1901 63.6836L67.9813 29.8924L84.1076 46.0187L50.3164 79.8099H34.1901V63.6836Z" fill="#2B4DFF"/>
</svg>
