<svg width="48" height="47" viewBox="0 0 48 47" fill="none" xmlns="http://www.w3.org/2000/svg">
<path d="M47 43.1429V18.8571C47 18.4136 46.8961 17.9761 46.6965 17.5794C46.4969 17.1827 46.2071 16.8376 45.85 16.5714L25.725 1.57143C25.2274 1.20051 24.6221 1 24 1C23.3779 1 22.7726 1.20051 22.275 1.57143L2.15 16.5714C1.79294 16.8376 1.50313 17.1827 1.30352 17.5794C1.10392 17.9761 1 18.4136 1 18.8571V43.1429C1 43.9006 1.3029 44.6273 1.84207 45.1632C2.38124 45.699 3.1125 46 3.875 46H15.375C16.1375 46 16.8688 45.699 17.4079 45.1632C17.9471 44.6273 18.25 43.9006 18.25 43.1429V34.5714C18.25 33.8137 18.5529 33.0869 19.0921 32.5511C19.6312 32.0153 20.3625 31.7143 21.125 31.7143H26.875C27.6375 31.7143 28.3688 32.0153 28.9079 32.5511C29.4471 33.0869 29.75 33.8137 29.75 34.5714V43.1429C29.75 43.9006 30.0529 44.6273 30.5921 45.1632C31.1312 45.699 31.8625 46 32.625 46H44.125C44.8875 46 45.6188 45.699 46.1579 45.1632C46.6971 44.6273 47 43.9006 47 43.1429Z" fill="#959595" stroke="#959595" stroke-width="2" stroke-linecap="round" stroke-linejoin="round"/>
</svg>
