<svg width="30" height="29" viewBox="0 0 30 29" fill="none" xmlns="http://www.w3.org/2000/svg">
<path d="M29 26.2857V11.7143C29 11.4482 28.9367 11.1857 28.8152 10.9476C28.6937 10.7096 28.5173 10.5025 28.3 10.3429L16.05 1.34286C15.7471 1.1203 15.3786 1 15 1C14.6214 1 14.2529 1.1203 13.95 1.34286L1.7 10.3429C1.48266 10.5025 1.30625 10.7096 1.18475 10.9476C1.06325 11.1857 1 11.4482 1 11.7143V26.2857C1 26.7404 1.18437 27.1764 1.51256 27.4979C1.84075 27.8194 2.28587 28 2.75 28H9.75C10.2141 28 10.6592 27.8194 10.9874 27.4979C11.3156 27.1764 11.5 26.7404 11.5 26.2857V21.1429C11.5 20.6882 11.6844 20.2522 12.0126 19.9307C12.3408 19.6092 12.7859 19.4286 13.25 19.4286H16.75C17.2141 19.4286 17.6592 19.6092 17.9874 19.9307C18.3156 20.2522 18.5 20.6882 18.5 21.1429V26.2857C18.5 26.7404 18.6844 27.1764 19.0126 27.4979C19.3408 27.8194 19.7859 28 20.25 28H27.25C27.7141 28 28.1593 27.8194 28.4874 27.4979C28.8156 27.1764 29 26.7404 29 26.2857Z" fill="#2B4DFF" stroke="#2B4DFF" stroke-width="2" stroke-linecap="round" stroke-linejoin="round"/>
</svg>
