<svg width="46" height="44" viewBox="0 0 46 44" fill="none" xmlns="http://www.w3.org/2000/svg">
<path d="M44.7597 19.9108C45.2755 19.5265 45.6581 18.9905 45.8538 18.3779C46.0496 17.7652 46.0487 17.1067 45.8513 16.4946C45.6539 15.8825 45.2699 15.3475 44.7531 14.9647C44.2363 14.5818 43.6126 14.3703 42.9695 14.3598L30.4799 13.888C30.4185 13.8837 30.3596 13.8618 30.3104 13.8249C30.2611 13.788 30.2236 13.7376 30.2024 13.6798L25.8865 2.02284C25.6696 1.42977 25.2758 0.917667 24.7583 0.555855C24.2407 0.194042 23.6245 0 22.9931 0C22.3616 0 21.7454 0.194042 21.2279 0.555855C20.7103 0.917667 20.3165 1.42977 20.0996 2.02284L15.7976 13.7215C15.7764 13.7792 15.7389 13.8296 15.6896 13.8665C15.6404 13.9035 15.5815 13.9254 15.5201 13.9296L3.03047 14.4015C2.3874 14.412 1.76374 14.6235 1.24694 15.0063C0.730138 15.3891 0.346112 15.9241 0.148706 16.5362C-0.0486999 17.1483 -0.0495856 17.8069 0.146173 18.4195C0.341931 19.0322 0.724517 19.5682 1.24029 19.9524L11.0377 27.6543C11.0867 27.6929 11.1234 27.745 11.1431 27.8042C11.1629 27.8634 11.1648 27.9271 11.1487 27.9874L7.77653 39.9358C7.60178 40.5442 7.61871 41.1918 7.82501 41.7902C8.03131 42.3887 8.41697 42.9091 8.92953 43.2806C9.44208 43.6522 10.0566 43.8568 10.6896 43.8666C11.3226 43.8765 11.9432 43.6911 12.4671 43.3358L22.8196 36.3971C22.8706 36.3619 22.9311 36.343 22.9931 36.343C23.055 36.343 23.1155 36.3619 23.1665 36.3971L33.519 43.3358C34.0358 43.7033 34.6543 43.9008 35.2884 43.9008C35.9226 43.9008 36.541 43.7033 37.0578 43.3358C37.5705 42.9677 37.9565 42.4499 38.1628 41.8534C38.369 41.257 38.3854 40.6113 38.2096 40.0052L34.8096 28.0151C34.7916 27.955 34.7926 27.8907 34.8125 27.8311C34.8324 27.7715 34.8701 27.7194 34.9207 27.6821L44.7597 19.9108Z" fill="#959595"/>
</svg>
