<svg width="46" height="45" viewBox="0 0 46 45" fill="none" xmlns="http://www.w3.org/2000/svg">
<path d="M44.7597 20.8115C45.2755 20.4273 45.6581 19.8913 45.8538 19.2786C46.0496 18.666 46.0487 18.0075 45.8513 17.3953C45.6539 16.7832 45.2699 16.2483 44.7531 15.8654C44.2363 15.4826 43.6126 15.2711 42.9695 15.2606L30.4799 14.7887C30.4185 14.7845 30.3596 14.7626 30.3104 14.7257C30.2611 14.6887 30.2236 14.6383 30.2024 14.5806L25.8865 2.92359C25.6696 2.33053 25.2758 1.81842 24.7583 1.45661C24.2407 1.0948 23.6245 0.900757 22.9931 0.900757C22.3616 0.900757 21.7454 1.0948 21.2279 1.45661C20.7103 1.81842 20.3165 2.33053 20.0996 2.92359L15.7976 14.6222C15.7764 14.68 15.7389 14.7304 15.6896 14.7673C15.6404 14.8042 15.5815 14.8261 15.5201 14.8304L3.03047 15.3022C2.3874 15.3127 1.76374 15.5242 1.24694 15.907C0.730138 16.2899 0.346112 16.8249 0.148706 17.437C-0.0486999 18.0491 -0.0495856 18.7076 0.146173 19.3203C0.341931 19.9329 0.724517 20.4689 1.24029 20.8532L11.0377 28.5551C11.0867 28.5937 11.1234 28.6458 11.1431 28.705C11.1629 28.7642 11.1648 28.8279 11.1487 28.8881L7.77653 40.8366C7.60178 41.445 7.61871 42.0925 7.82501 42.691C8.03131 43.2895 8.41697 43.8099 8.92953 44.1814C9.44208 44.5529 10.0566 44.7575 10.6896 44.7674C11.3226 44.7773 11.9432 44.5919 12.4671 44.2365L22.8196 37.2978C22.8706 37.2626 22.9311 37.2438 22.9931 37.2438C23.055 37.2438 23.1155 37.2626 23.1665 37.2978L33.519 44.2365C34.0358 44.604 34.6543 44.8015 35.2884 44.8015C35.9226 44.8015 36.541 44.604 37.0578 44.2365C37.5705 43.8685 37.9565 43.3506 38.1628 42.7542C38.369 42.1578 38.3854 41.5121 38.2096 40.9059L34.8096 28.9159C34.7916 28.8557 34.7926 28.7914 34.8125 28.7318C34.8324 28.6722 34.8701 28.6202 34.9207 28.5828L44.7597 20.8115Z" fill="#2B4DFF"/>
</svg>
