<svg width="316" height="79" viewBox="0 0 316 79" fill="none" xmlns="http://www.w3.org/2000/svg">
<g clip-path="url(#clip0_38_19)">
<path d="M316 -126.693H0V205.693H316V-126.693Z" fill="white"/>
<path d="M78.482 55.4454C78.482 55.267 78.9061 55.1778 79.1181 55.1332C79.0757 55.0886 79.3725 54.9994 79.3725 54.9548C79.3725 54.8656 79.4149 54.8656 79.4573 54.8656C79.7542 54.821 79.7966 54.7318 79.9662 54.7318C79.9238 54.7318 80.0934 54.6872 80.1358 54.6872L80.051 54.5533C80.263 54.5533 80.3478 54.4641 80.6022 54.4641C80.6022 54.3303 80.8142 54.3749 80.8142 54.3303C80.8142 54.3303 80.7718 54.2857 80.687 54.2411C80.8567 54.2411 80.9415 54.1965 81.0263 54.1965C80.687 54.1073 80.3478 54.1073 80.0086 54.1073C79.4149 54.1073 78.8213 54.1519 78.3548 54.1965C76.7859 54.2857 75.2594 54.5087 73.3936 54.5533C72.588 54.5533 71.6975 54.4195 71.6551 53.4383V53.0369C71.6551 49.2457 73.2664 42.3769 74.2417 38.4965C74.8353 35.4635 75.853 32.4751 76.4467 29.2638C76.5315 28.8177 76.7859 28.0149 76.7859 27.3013C76.7859 26.7214 76.6163 26.2308 75.9802 26.097C75.853 26.0524 75.8106 26.0524 75.8106 25.9632C75.5986 25.9632 75.5138 25.874 75.429 25.8294H75.2594C75.0474 25.8294 74.8777 25.6956 74.7505 25.6956C74.5809 25.6956 74.4961 25.6956 74.4113 25.651C74.3689 25.6956 74.2841 25.7402 74.1993 25.7402C73.9873 25.7402 73.7329 25.5618 73.5632 25.5172H72.5031C72.2911 25.5172 72.1639 25.651 72.0367 25.651C71.8247 25.6956 71.6551 25.8294 71.4007 25.8294C71.3582 25.874 71.3158 25.874 71.2734 25.874C70.9766 25.874 70.0437 26.0524 69.8317 26.2308C69.6621 26.4984 69.3229 26.766 69.1533 27.1229C67.6267 30.1558 65.1249 43.7596 65.1249 49.7363C65.1249 50.0931 65.1673 50.4499 65.1673 50.7621C65.1673 50.8959 65.0825 50.9852 65.0825 51.0744C65.1249 52.011 65.0401 52.9477 65.3793 54.0181C65.6338 55.49 67.5843 56.9173 68.9836 57.1403C69.2381 57.1403 70.2982 57.2741 71.3582 57.2741C73.224 57.2741 75.7682 56.8727 77.422 55.8914C77.5068 55.8468 77.7188 55.8022 77.846 55.8022C77.846 55.8022 77.9308 55.8022 77.9308 55.6684C78.0156 55.6684 78.0156 55.713 78.058 55.713C78.1004 55.6238 78.2276 55.5792 78.2276 55.49M92.2765 27.4351C92.2765 27.2567 92.1917 26.8998 92.1917 26.8552C92.1069 26.8552 91.8949 26.8106 91.8101 26.8106C91.7252 26.8106 91.7252 26.6322 91.6828 26.6322C91.4284 26.6322 91.4708 26.6768 91.3436 26.8998C91.0892 26.4984 90.3259 26.4092 89.9443 26.4092H89.3506C89.0962 26.5876 88.9266 26.6322 88.8418 26.6322C88.7146 26.6322 88.6298 26.4984 88.5026 26.4984C88.4602 26.4984 88.4178 26.543 88.3754 26.543C88.3754 26.5876 88.2906 26.5876 88.2057 26.5876C87.9089 26.7214 87.6969 27.2121 87.3153 27.2121C87.2305 27.2567 87.1881 27.2567 87.1457 27.2567C87.1033 27.2567 87.1033 27.2121 86.8488 27.2121C86.764 27.3459 86.6792 27.9257 86.5096 27.9703C86.552 28.0149 86.34 27.7473 86.2976 27.7919C86.0432 28.0149 86.128 28.0149 85.9584 28.3271C85.7887 28.3717 85.1103 29.0854 85.0679 29.2192C84.2198 37.649 82.2268 46.3911 82.1844 54.9102C82.2268 55.7576 82.5661 56.5159 83.3717 56.6051C83.7958 56.6051 83.8382 56.4712 83.9654 56.3374L84.135 56.4713C84.135 56.4713 84.2622 56.159 84.4318 56.159C84.559 56.2928 84.8983 56.8727 84.8983 56.7389C84.8983 56.6943 84.8983 56.6051 84.8135 56.4266C84.8135 56.4266 84.7287 56.3374 84.7287 56.2928C84.8135 56.2928 84.8559 56.3374 84.8559 56.3374C85.1951 56.6497 85.7039 56.5159 86.0008 57.1403C86.0432 57.0957 86.128 56.9619 86.128 56.8281C86.128 56.7835 86.0856 56.7389 86.0432 56.6943C86.128 56.6497 86.1704 56.6497 86.2128 56.6497C86.3824 56.6497 86.2552 56.8727 86.552 56.8727C86.552 56.8281 86.7216 56.6051 86.764 56.6051C87.0609 56.6051 86.8912 56.7835 87.1033 57.0065V56.7835C87.1881 56.6497 87.6121 56.6051 87.6121 56.5605L87.7817 56.7389C87.8241 56.7389 87.9937 56.5605 88.1633 56.5605C88.2058 56.5605 88.4178 56.5159 88.5874 56.5159C88.6722 56.5159 88.757 56.5159 88.7994 56.5605C88.969 56.6943 89.1386 56.7835 89.2234 56.7835C89.3931 56.7835 89.4355 56.7835 89.6051 56.9173C89.5203 56.7389 89.4779 56.6051 89.4779 56.4266L89.3506 53.9735C89.393 52.9923 89.4355 52.1002 89.5203 51.2974C90.1563 44.607 91.9373 34.2146 92.2765 27.4351ZM112.728 28.3717C112.77 28.3271 112.813 28.3271 112.855 28.3271C112.898 28.3271 112.982 28.3271 113.067 28.3717C112.558 28.0595 112.049 27.7473 111.541 27.7473C111.541 27.7027 111.837 27.7027 111.837 27.6581C111.753 27.6581 111.498 27.5689 111.371 27.5689C109.76 27.1675 108.064 26.8998 106.325 26.8552H105.731C103.569 26.8552 101.321 27.0783 99.2436 27.4797C97.5051 28.1487 96.9538 27.5689 96.869 28.1933C96.9114 28.8623 99.0316 29.13 99.0316 29.1746H98.862C98.862 29.2192 98.9892 29.2192 98.9892 29.2638C97.1658 36.2664 95.9785 45.0084 95.8513 51.9664V52.2786C95.8513 53.5721 96.0633 56.6497 97.2082 56.6943C97.5899 56.6943 97.6747 56.3374 98.1411 56.3374C98.1411 56.2036 98.5227 55.9806 98.5652 55.9806C98.5652 56.0698 98.6924 56.159 98.7772 56.159C98.7772 56.0252 98.862 55.9806 98.9468 55.9806C99.1588 55.936 99.1588 55.8914 99.1588 55.8468C99.1588 55.8022 99.1588 55.7576 99.2436 55.6684C99.286 55.713 99.3284 55.713 99.3708 55.713C99.5404 55.713 99.7949 55.4454 99.9645 55.4454C100.176 55.4454 100.473 55.3562 100.728 55.3562C100.813 55.4008 100.855 55.4454 100.855 55.4454C100.897 55.3562 101.067 55.267 101.152 55.267C101.194 55.267 101.321 55.4008 101.364 55.4008V55.1778C101.661 55.1778 101.703 55.4454 101.788 55.5346C101.745 55.4008 101.745 55.3116 101.703 55.267C101.703 55.2224 102 55.3562 102.042 55.3562C101.873 54.9994 101.83 54.4641 101.83 53.9289C101.83 53.3937 101.873 52.8139 101.915 52.3232C102.042 48.532 102.678 44.9638 103.145 41.2172C105.01 41.128 106.961 41.128 108.742 40.9496C109.124 40.905 109.463 40.7712 109.845 40.6374C109.675 40.6374 109.378 40.7712 109.124 40.7712L109.675 40.5928C109.632 40.5928 109.59 40.5482 109.59 40.5482C109.378 40.5482 109.293 40.5482 109.166 40.5928C109.166 40.5928 108.996 40.682 108.912 40.682H108.7C108.996 40.5482 109.208 40.4144 109.59 40.2806C109.548 40.2806 109.42 40.236 109.293 40.236C109.208 40.236 109.081 40.236 108.869 40.2806C108.827 40.2806 108.784 40.3698 108.742 40.3698C108.827 39.9237 110.226 39.9684 110.481 39.9237C110.311 39.9237 110.226 39.8791 110.226 39.8791C110.226 39.7899 110.353 39.7899 110.438 39.7899C110.523 39.7899 110.608 39.7899 110.693 39.7453C110.523 39.6561 109.717 39.7007 109.675 39.6561H110.014C109.972 39.6561 109.929 39.6115 109.929 39.5669C110.057 39.5669 110.396 39.5669 110.481 39.5223C110.608 39.5223 111.032 39.4777 111.244 39.4331C111.201 39.4331 111.074 39.3885 111.032 39.3885C111.159 39.3439 111.329 39.3885 111.413 39.2547C111.329 39.2547 111.244 39.2547 111.159 39.2101C111.074 39.2993 111.032 39.2993 110.947 39.2993H110.777C110.777 39.2101 110.862 39.2101 110.905 39.1655C111.032 39.1655 111.074 39.0763 111.117 39.0763H111.286C111.329 39.0763 111.371 39.0763 111.413 39.0317C109.675 38.8979 108.276 38.8533 106.919 38.8533H103.569C103.823 36.534 104.714 31.5385 105.477 29.4422C106.283 29.3084 107.555 29.3084 108.53 29.3084H109.887C109.972 29.3084 110.099 29.3084 110.141 29.353C110.141 29.2192 110.311 29.2192 110.311 29.1746C110.65 29.2192 110.947 29.3084 111.201 29.3084C111.244 29.3084 111.286 29.353 111.329 29.353C111.371 29.3976 111.286 29.2638 111.286 29.2192C111.583 29.353 111.625 29.3976 111.837 29.3976C111.837 29.3976 111.795 29.2192 111.668 29.2192C111.413 29.13 110.905 28.9962 110.905 28.8623C111.117 28.907 111.371 29.0854 111.498 29.0854C111.583 29.0854 111.625 29.0854 111.625 28.9962C111.795 29.0854 111.965 29.0854 112.134 29.0854C111.965 28.9962 111.753 28.9516 111.625 28.8623C111.88 28.907 112.177 28.9516 112.431 28.9516C112.431 28.9516 111.965 28.8177 111.753 28.7285C111.88 28.6839 112.007 28.4609 112.177 28.4609C112.262 28.4609 112.304 28.5501 112.346 28.5501C112.431 28.5501 112.516 28.4609 112.558 28.4609C112.77 28.5055 112.813 28.5501 112.813 28.5501M130.593 29.1746C129.236 27.8365 125.589 27.3905 122.197 27.3905C121.094 27.3905 119.356 27.3013 117.914 27.3013H117.236C115.794 27.3905 114.013 27.6135 114.013 28.5947C114.055 29.0408 114.395 29.3976 114.734 29.576C113.971 35.6865 113.25 41.2618 112.444 46.9263C112.402 48.1306 111.978 50.4945 111.978 52.5908V52.8585C112.02 54.8656 112.444 56.4713 113.97 56.5605C114.098 56.4266 114.098 56.1144 114.267 55.936C114.988 56.4713 115.921 56.6051 116.939 56.6051H117.32C118.55 56.5605 123.172 55.8468 123.172 55.7576C124.444 55.49 122.875 55.1778 125.207 55.0886C125.207 54.6872 126.225 54.8656 126.225 54.6872H126.437C126.352 54.6426 126.268 54.6872 126.225 54.6872C126.183 54.6872 126.183 54.6426 126.14 54.5979H126.31C126.268 54.5533 126.522 54.5533 126.734 54.5533C126.946 54.5533 127.158 54.5533 127.158 54.4641C127.158 54.4641 126.988 54.4195 126.692 54.3749C126.776 54.3749 126.819 54.3303 126.861 54.2411H126.48C126.564 54.1519 126.734 54.1965 126.861 54.1073C126.988 54.1073 127.116 54.1519 127.243 54.1519C127.328 54.1519 127.412 54.1519 127.455 54.1073C127.073 53.7059 126.607 53.6167 125.971 53.6167H125.419C125.123 53.6167 124.783 53.6167 124.444 53.6613C123.893 53.5721 123.426 53.4829 122.96 53.4829L120.67 53.6613H120.119C119.61 53.6613 119.144 53.6167 118.72 53.5721C118.677 53.2599 118.677 52.9031 118.677 52.5908V51.9218C118.677 49.3795 119.101 47.1493 119.356 44.5624C121.858 44.4732 123.426 44.2502 124.995 44.161C125.716 44.1164 125.928 44.1164 125.971 44.1164C125.971 44.1164 125.886 44.0272 125.801 43.9826C126.013 44.0272 126.31 44.0718 126.564 44.0718L126.819 43.9826C127.073 43.9826 127.497 43.8934 127.497 43.6704C127.709 43.6258 127.667 43.5812 128.43 43.3581C126.861 42.2431 124.656 42.0201 122.833 42.0201C121.561 42.0201 120.458 42.1093 119.695 42.1539L121.434 30.2896C122.79 30.245 127.667 29.9328 128.006 29.8882C127.921 29.8882 127.836 29.8436 127.794 29.799C127.836 29.799 128.515 29.8436 128.897 29.8436C128.897 29.799 128.6 29.7544 128.473 29.6206C128.642 29.6206 128.897 29.7098 129.066 29.7098C129.151 29.7098 129.193 29.7098 129.236 29.6652C129.236 29.6652 129.193 29.6206 129.109 29.576H129.321C129.321 29.5314 129.363 29.4868 129.405 29.4868C129.448 29.4868 129.533 29.576 129.575 29.576C129.575 29.576 129.702 29.4868 129.702 29.4422C129.49 29.4422 129.278 29.353 129.066 29.2638C129.066 29.2192 129.151 29.2192 129.193 29.2192H129.575C129.745 29.2192 129.787 29.1746 129.787 29.0854C129.829 29.0854 130.296 29.1746 130.593 29.1746ZM130.041 29.4422C129.914 29.3084 129.872 29.3084 129.829 29.3084C129.872 29.4422 129.957 29.4422 130.041 29.4422ZM172.259 52.1002C172.301 52.0556 172.301 51.9218 172.301 51.788V51.2528C172.343 51.342 172.343 51.5204 172.343 51.6542C172.343 51.8772 172.301 52.1448 172.301 52.3232C172.174 52.3232 172.174 52.3678 172.174 52.4124V52.5908C171.962 52.5908 171.919 52.9477 171.919 53.0369C171.877 53.3045 171.453 53.3045 171.368 53.4829C171.326 53.3045 171.156 53.1707 171.156 53.0369V51.9664C171.156 51.8326 171.114 51.6988 171.029 51.6096C171.114 51.2528 171.156 51.0744 171.156 51.0298C171.156 50.9405 170.902 51.6542 170.859 51.6542C170.859 51.6542 170.859 51.6096 170.902 51.3866C170.986 51.2082 171.071 50.8513 171.114 50.5837C171.071 50.6729 171.029 50.7621 170.986 50.7621C170.986 50.6729 170.859 50.6729 170.859 50.6729C170.859 50.4053 171.029 50.1823 171.071 49.8701C171.071 49.9593 171.156 49.9593 171.156 50.0039C171.198 50.0039 171.198 49.9147 171.198 49.6917C171.198 49.7363 171.114 49.4687 171.114 49.3349C171.114 49.3795 171.156 48.9334 171.283 48.9334C171.326 48.978 171.453 48.7996 171.453 48.6658C171.453 48.3536 171.41 48.3536 171.41 48.3536C171.453 47.8184 171.58 47.1493 171.75 46.3911C171.75 46.3465 171.75 46.2573 171.792 46.1681C171.792 46.5249 171.707 47.0601 171.707 47.0601C171.75 47.0601 171.835 46.6141 171.877 46.4803C171.835 46.7479 171.792 47.2385 171.792 47.5062C171.792 47.5508 171.835 47.3278 171.835 47.417C171.835 47.417 171.919 47.2832 171.962 47.2386C171.962 47.4616 171.962 48.2198 171.835 48.2198C171.835 48.1752 171.707 48.2644 171.707 48.4428C171.707 48.3982 171.792 48.309 171.877 48.309L171.792 49.3795C171.792 49.4687 171.792 49.5579 171.835 49.6025C171.962 49.3349 171.877 49.2011 171.962 48.978C172.004 49.0672 172.004 49.1565 172.004 49.2457C172.004 49.3795 171.962 49.6471 171.962 49.8255C171.962 49.8701 171.962 49.9593 172.004 50.0039C172.004 49.9593 172.047 49.6917 172.047 49.5133C172.047 49.6025 172.174 48.3982 172.216 47.7738C172.301 47.863 172.259 48.2198 172.301 48.2198C172.301 48.2644 172.259 49.0672 172.259 49.4241C172.386 48.755 172.513 48.2644 172.598 47.5508V48.4874C172.683 48.4428 172.598 48.2198 172.725 47.9968C172.725 48.978 172.471 50.0039 172.428 51.0744C172.216 51.0744 172.216 51.342 172.216 51.4758C172.216 51.6988 172.259 51.9218 172.259 52.1002ZM142.279 48.3536C142.237 48.3536 142.194 48.3536 142.152 48.3982C142.067 48.309 142.067 48.2644 142.067 48.2198C142.067 48.1752 142.11 48.1306 142.11 47.9522C141.94 47.9076 141.77 47.7292 141.77 47.64C141.77 47.3724 141.728 47.2832 141.728 47.0155C141.686 46.1235 141.686 45.8559 141.686 45.6329C141.686 43.7596 141.728 43.8042 141.728 43.8042C141.728 43.8042 141.643 43.1797 141.643 43.2243C141.643 43.1797 141.728 43.0459 141.728 43.0013C141.686 42.8675 141.601 42.8229 141.601 42.6891C141.601 42.4215 141.643 42.1985 141.686 42.1985C141.728 42.1985 141.77 42.2877 141.855 42.5107C141.855 42.7783 141.813 43.0905 141.813 43.3581C141.813 43.4919 141.813 43.5812 141.855 43.6704L141.982 42.7337C141.982 43.938 142.025 43.938 142.025 44.2056C142.025 44.3394 142.067 44.384 142.067 44.384C142.11 44.384 142.11 44.2948 142.11 44.2502V42.4661C142.152 42.3323 142.152 41.9309 142.152 41.8863C142.279 41.8863 142.364 43.8934 142.364 44.5178C142.364 45.053 142.364 45.5437 142.406 45.8113V46.5695C142.491 46.4357 142.491 45.4545 142.491 45.053C142.491 45.0976 142.534 45.1422 142.534 45.276L142.576 45.8559C142.576 45.9451 142.661 45.1868 142.661 44.4732C142.661 44.4286 142.703 44.3394 142.703 44.2502L142.788 44.4286V44.0718C142.83 44.0718 142.873 44.1164 142.873 44.161C142.873 44.2502 142.83 44.2502 142.83 44.2948C142.83 44.3394 142.873 44.384 142.915 44.4286C142.83 44.4732 142.83 44.5624 142.83 44.6516C142.83 44.6516 142.788 44.7408 142.788 44.83C142.788 44.9192 142.958 44.6962 142.958 44.6962C142.915 44.9638 142.83 46.7033 142.788 47.1047C142.788 47.3278 142.406 48.8888 142.322 49.2457C142.279 49.2457 142.279 49.1565 142.279 48.9334C142.279 48.755 142.322 48.6658 142.322 48.532C142.322 48.4874 142.322 48.3982 142.279 48.3536ZM168.993 44.2502C169.121 44.2502 169.078 44.0718 169.121 44.0718C169.121 44.2056 169.163 44.161 169.163 44.2056C169.248 44.2056 169.29 42.6891 169.46 42.1985C169.418 42.0201 169.418 41.8863 169.418 41.7078C169.46 41.4402 169.545 41.4402 169.545 41.2172C169.545 41.2172 169.46 41.1726 169.418 41.1726C169.672 40.0576 170.011 38.3627 170.011 37.2476C170.011 37.2476 169.799 37.426 169.799 37.5598C169.799 39.7453 168.993 42.0201 168.993 44.2502ZM143.043 45.5883C143.043 44.9638 143.17 41.8417 143.17 41.8417C143.255 41.8863 143.255 41.9309 143.255 42.0201C143.255 42.1539 143.212 42.3323 143.212 42.4215V43.6704C143.212 44.0272 143.212 44.2502 143.297 44.2502C143.297 44.6962 143.255 45.276 143.043 45.5883ZM168.527 48.532C168.527 48.3982 168.527 48.2198 168.612 48.086C168.654 48.1306 168.697 48.2198 168.697 48.1752C168.697 48.0414 168.697 47.9076 168.739 47.7738C168.739 47.9522 168.781 47.9968 168.781 48.0414C168.781 47.9522 168.909 47.2385 169.036 47.1047L168.909 48.1306C168.909 48.1306 168.951 47.9968 169.036 47.9968C168.951 48.2198 168.781 49.1119 168.739 49.1119C168.739 49.0226 168.527 48.755 168.527 48.532ZM169.29 49.8701C169.29 49.8255 169.333 49.7809 169.333 49.7363C169.333 49.6025 169.206 49.5579 169.206 49.5133C169.206 49.3795 169.587 47.7292 169.672 47.5062C169.672 47.7738 169.587 47.9968 169.587 48.086C169.587 48.1306 169.63 48.2198 169.63 48.2644C169.502 49.2903 169.587 48.4428 169.418 49.6025C169.418 49.6917 169.375 49.7809 169.29 49.8701ZM169.163 50.3607C169.163 50.4499 169.206 50.5837 169.206 50.6729L169.036 51.6096C168.993 52.234 168.909 52.5016 168.866 52.5016C168.824 52.5016 168.824 52.3678 168.824 52.1894C168.824 51.8326 168.909 51.2082 169.163 50.3607ZM168.485 50.5391C168.485 50.3161 168.527 50.0931 168.612 49.8701C168.569 50.0931 168.569 50.4945 168.569 50.9405C168.569 51.0744 168.612 51.2082 168.612 51.342C168.527 51.788 168.485 53.0815 168.442 53.0815V51.7434C168.442 51.2528 168.442 50.8513 168.485 50.7175M169.29 47.5508C169.29 47.5062 169.418 47.3278 169.418 47.2831C169.46 47.3278 169.46 47.3724 169.46 47.4616C169.46 47.863 169.206 48.8888 169.121 48.8888C169.121 48.8888 169.121 47.9522 169.29 47.5508ZM167.085 31.2263C167.085 31.2263 167.213 30.9141 167.34 30.8695C167.594 30.6018 167.933 30.3342 168.273 30.1558C167.933 30.5126 167.467 31.2263 167.085 31.2263ZM169.418 52.0556C169.46 51.5204 169.63 50.3607 169.757 50.3607C169.757 51.565 169.46 52.1002 169.418 52.0556ZM171.962 51.2082C171.962 51.565 172.004 51.6988 172.047 51.6988C172.089 51.4758 172.131 51.2974 172.131 51.119C172.131 50.8959 172.089 50.7175 172.089 50.5837C172.089 50.4945 172.004 50.4499 171.962 50.4053M170.181 52.1448C170.266 51.788 170.266 51.4758 170.266 51.4312C170.266 51.3866 170.478 51.0744 170.478 50.8959C170.478 50.8513 170.562 50.9852 170.562 51.0298C170.562 51.2082 170.308 52.011 170.181 52.1448ZM169.333 51.6096C169.29 51.5204 169.29 51.4312 169.29 51.3866C169.29 51.1636 169.375 50.3607 169.418 50.3607C169.418 50.4499 169.502 50.1823 169.545 50.1823C169.545 50.2715 169.46 50.4945 169.418 50.6283C169.46 50.7175 169.46 50.8513 169.46 50.9852C169.46 51.2082 169.418 51.3866 169.333 51.6096ZM169.036 54.1073C168.951 54.0181 168.951 53.8843 168.951 53.7505C168.951 52.9923 168.993 52.7246 169.036 52.7246C169.078 52.7246 169.078 52.8585 169.078 53.0815C169.078 53.2599 169.078 53.4829 169.036 53.7059C169.078 53.7059 169.121 53.7505 169.121 53.8397C169.078 53.9289 169.036 54.0627 169.036 54.1073ZM167.34 32.832C167.128 33.1888 166.873 33.4118 166.661 33.7686C166.958 33.7686 167.34 33.0996 167.34 32.832ZM166.237 33.947C165.856 34.5715 165.813 34.6161 165.686 34.9729C165.983 34.7945 166.237 34.2592 166.237 33.947ZM169.757 52.5908C169.714 52.5016 169.714 52.457 169.714 52.3678C169.714 52.234 169.757 52.1002 169.757 51.9664C169.757 51.8772 169.757 51.7434 169.714 51.6542C169.757 51.6542 169.757 51.4758 169.799 51.4758C169.842 51.4758 169.884 51.565 169.884 51.6988C169.884 51.9664 169.799 52.457 169.757 52.5908ZM170.435 36.757C170.52 36.757 170.562 36.757 170.605 36.8016C170.605 36.9354 170.35 37.4706 170.35 37.649C170.308 37.5152 170.308 37.426 170.308 37.2922M172.259 30.3342C172.555 30.6464 172.64 31.0925 172.683 31.3601C172.513 30.8695 172.301 30.5572 172.301 30.5572C172.259 30.6464 172.131 30.2004 172.089 30.1112C172.216 30.2004 172.259 30.2896 172.259 30.3342ZM170.478 52.1002C170.52 52.1002 170.52 52.1448 170.52 52.2786C170.52 52.9031 170.308 52.9031 170.308 52.9477C170.308 52.8139 170.393 52.1002 170.478 52.1002ZM169.842 40.3698C169.714 40.3698 169.63 40.5036 169.63 40.6374V41.128C169.714 41.128 169.842 40.4144 169.842 40.3698ZM169.502 49.7809C169.502 49.6917 169.587 49.1565 169.63 48.8442C169.63 48.9334 169.63 49.0226 169.63 49.1119C169.63 49.1565 169.672 49.3349 169.672 49.4687C169.672 49.6471 169.63 49.7809 169.502 49.7809ZM141.855 44.0718C141.855 44.0272 141.813 44.3394 141.813 44.4732C141.813 44.83 141.813 45.276 141.855 45.276C141.855 45.2314 141.898 44.83 141.898 44.6516C141.898 44.4732 141.898 44.161 141.855 44.0718ZM166.873 32.0291C166.873 31.8507 167.34 31.2709 167.637 31.2263C167.425 31.4493 167.128 31.6723 166.873 32.0291ZM172.513 52.7246C172.513 52.8139 172.471 52.8585 172.471 52.9477C172.471 53.0369 172.513 53.1261 172.598 53.2153C172.598 53.0815 172.683 52.9477 172.683 52.8139C172.683 52.7246 172.598 52.7246 172.513 52.7246ZM168.951 29.8882C168.951 30.022 168.697 29.9774 168.654 30.245C168.485 30.245 168.442 30.245 168.442 30.2004C168.442 30.1112 168.824 29.8882 168.951 29.8882ZM172.216 49.6471C172.089 49.7809 172.089 49.9593 172.089 50.0931V50.3161C172.131 50.2715 172.131 50.1823 172.216 50.1823M170.308 39.3439C170.308 39.5669 170.266 39.7899 170.138 40.1022C170.138 39.8345 170.181 39.4777 170.308 39.3439ZM168.781 50.4945C168.781 50.7175 168.739 51.0744 168.697 51.2528C168.697 51.1636 168.654 51.0298 168.654 50.8959C168.654 50.7621 168.739 50.6283 168.781 50.4945ZM169.63 46.3019C169.63 46.3911 169.672 46.4803 169.672 46.5695C169.63 46.7925 169.587 46.9263 169.46 47.1047C169.63 46.7479 169.502 46.6141 169.63 46.3019ZM166.152 33.8132C165.983 33.9916 165.813 34.1254 165.771 34.3484C165.898 34.3038 166.11 33.947 166.152 33.8132ZM168.442 30.5126C168.23 30.5572 168.103 30.6464 167.976 30.8249C167.976 30.6464 168.273 30.5126 168.4 30.3788C168.442 30.3788 168.442 30.468 168.442 30.5126ZM168.739 52.234C168.739 52.4124 168.654 52.8139 168.612 52.8139V52.6354C168.612 52.5016 168.654 52.3678 168.739 52.234ZM143.297 44.0272C143.297 43.7596 143.339 43.4473 143.382 43.2689C143.382 43.5365 143.382 43.8488 143.297 44.0272ZM141.855 41.9755C141.728 41.9309 141.686 41.8417 141.686 41.7971C141.686 41.6632 141.813 41.574 141.813 41.4402C141.855 41.5294 141.855 41.7971 141.855 41.9755ZM142.025 46.8371C142.025 47.2385 142.025 47.3724 142.067 47.417L142.11 47.2386C142.11 47.0601 142.067 47.0155 142.025 46.8371ZM170.52 36.4894C170.478 36.4894 170.435 36.4448 170.435 36.4002C170.435 36.2664 170.562 35.9987 170.605 35.9541C170.605 35.9541 170.52 36.311 170.52 36.4894ZM171.75 29.799C171.792 29.8436 171.877 29.8882 171.877 29.9328C171.877 29.9328 171.792 30.1558 171.75 30.1558C171.665 30.1558 171.665 30.0666 171.58 30.0666C171.623 30.0666 171.623 29.9328 171.75 29.799ZM141.898 47.3278C141.898 47.2832 141.813 47.4616 141.813 47.4616C141.813 47.5508 141.813 47.6846 141.898 47.6846M173.107 32.2521C172.937 32.2075 172.937 32.1183 172.937 31.9845C173.022 32.0291 173.107 32.2075 173.107 32.2521ZM171.071 29.2192C171.156 29.2192 171.368 29.2638 171.368 29.3084C171.368 29.3084 171.071 29.3084 171.071 29.2192ZM173.234 30.8249C172.937 30.0666 171.919 28.2379 170.605 28.2379C167.128 28.2379 164.626 32.1629 162.845 34.8837L162.463 35.4635C162.294 31.9845 161.7 28.6839 159.792 26.0078C159.792 26.7214 160.555 27.7473 160.555 27.7473C160.555 27.8811 160.682 27.8811 160.682 28.0149C160.216 27.8811 159.707 26.4538 159.58 25.9186C159.58 25.428 158.901 25.1603 158.562 25.1603C158.52 25.1603 158.477 25.1603 158.308 25.2049C158.096 25.1157 157.969 24.9819 157.969 24.9373C158.011 24.9373 158.393 25.0265 158.605 25.0265C158.011 24.4913 157.205 24.4913 156.527 24.4913C150.039 24.4913 147.622 31.4493 145.714 36.6678C145.502 37.2922 145.29 37.9166 145.035 38.5411C145.29 36.757 145.968 29.6206 145.968 26.7214C145.968 24.4467 145.672 22.0382 143.806 22.0382C142.788 22.0382 140.668 23.287 140.625 23.4209C140.413 23.5993 140.371 23.8223 140.371 23.9115C140.371 34.4377 141.007 44.4732 141.007 54.5087C141.007 55.8468 141.007 57.8539 141.389 57.8539C141.813 57.8539 142.279 57.5417 142.406 57.4079C142.449 57.4525 142.491 57.4525 142.534 57.4525C142.618 57.4525 142.618 57.3187 142.703 57.2741C142.83 57.3187 142.915 57.3633 143.043 57.3633C143.339 57.3633 143.255 56.9619 143.509 56.9619C143.679 56.9619 144.569 57.0511 144.696 57.0511C144.739 57.0065 145.078 56.9619 145.29 56.8281C145.502 56.8281 145.502 56.9173 145.672 57.0065C145.672 56.9619 145.629 56.8727 145.629 56.8281C145.714 56.2036 146.859 56.9173 146.859 55.4454C146.859 54.8656 146.774 54.5979 146.774 54.0181C147.495 46.3019 149.318 39.9684 151.862 34.0362C152.795 31.8061 153.983 29.353 155.424 27.2567C156.018 28.8177 156.188 30.5572 156.188 32.3859C156.188 36.2664 154.746 50.0039 154.746 51.788C154.746 51.8326 154.788 52.1002 154.788 52.2786C154.703 52.2786 154.576 52.5908 154.534 52.5462C154.534 52.5908 154.746 52.68 154.746 52.8585C154.746 52.9031 154.619 52.9923 154.619 53.0815C154.746 53.2153 154.958 53.2153 155.085 53.2153C155.17 53.2153 155.17 53.0815 155.212 53.0815C155.297 53.1707 155.424 53.1707 155.509 53.1707C155.976 53.1707 157.926 52.8585 158.223 52.8585C158.265 52.9923 158.35 53.0815 158.52 53.0815C159.029 53.0815 158.817 53.0369 159.198 52.68C159.325 52.9031 159.198 53.0815 159.453 53.0815C159.495 52.9477 159.58 52.8585 159.75 52.8139C159.707 52.7692 159.707 52.68 159.707 52.6354C159.707 52.5462 159.877 52.5016 159.877 52.5016C159.962 52.5016 160.131 52.1448 160.174 52.1002C160.258 52.1002 160.343 52.2786 160.386 52.457C160.513 52.457 160.513 52.3232 160.682 52.1894C160.725 52.2786 160.725 52.3232 160.767 52.3232C160.767 52.234 160.894 52.234 160.894 52.1002C160.894 52.011 161.234 51.8326 161.318 51.6988C161.403 50.1377 163.015 43.6704 163.693 41.2172C163.693 41.0388 163.566 40.905 163.566 40.7712C163.566 40.7266 163.735 40.8604 163.82 40.8604C164.626 38.4965 167.552 32.1629 169.502 31.1371C170.054 32.2521 169.799 33.9024 169.969 35.1513C169.969 35.2405 170.011 35.2851 170.011 35.3743C169.884 35.6419 169.884 36.0433 169.884 36.4002V36.8908C170.054 36.4002 170.181 35.5973 170.181 35.1067C170.181 34.8837 170.138 34.8837 170.138 34.8837C170.096 34.8837 170.054 34.9283 170.054 34.9729C170.096 34.7945 170.138 34.4823 170.223 34.3931C170.266 34.4377 170.266 34.5715 170.266 34.5715C170.266 34.7499 170.308 34.9283 170.308 35.1513V35.9095C170.308 36.0433 170.308 36.2664 170.35 36.2664C170.266 37.2922 169.884 38.5411 169.799 39.9684C170.054 39.4777 169.969 39.3885 170.138 38.9871C170.096 39.2993 170.054 39.4777 170.054 39.6115C169.969 40.1022 170.054 39.4777 169.587 42.1985C169.545 42.4215 169.46 42.5999 169.46 42.7783C169.46 42.7783 169.248 44.0718 169.248 44.83C169.248 45.3206 169.036 45.7667 169.036 46.2127C169.036 46.2127 169.121 46.1235 169.121 46.0789C169.078 46.5249 168.909 47.2385 168.824 47.417C168.824 47.2385 168.824 47.1047 168.781 47.0601C168.781 46.9709 168.824 46.8817 168.824 46.7033C168.824 46.0789 168.951 45.4991 169.036 44.9638C168.612 45.7667 168.103 50.2715 168.103 51.788C168.103 51.8326 168.23 51.8326 168.23 51.8326C168.23 51.7434 168.188 51.6542 168.188 51.565C168.188 51.4758 168.23 51.3866 168.315 51.2974C168.273 52.6354 168.145 53.3045 168.145 54.3303C168.145 55.0886 168.23 55.8022 168.824 56.4266C168.866 56.3374 168.909 56.2928 168.951 56.2928C169.036 56.2928 169.121 56.382 169.163 56.5159C169.121 56.3374 169.121 56.1144 169.121 55.8914C169.121 55.713 169.163 55.5346 169.248 55.5346C169.248 55.4008 169.206 55.267 169.206 55.0886C169.248 55.3562 169.418 55.8468 169.672 55.936C169.672 55.8022 169.63 55.8022 169.63 55.713C169.672 55.6684 169.757 55.8022 169.842 55.8468C169.842 55.5792 169.63 55.3116 169.63 55.0886C169.714 55.3116 169.926 55.3562 169.969 55.5792C169.969 55.1778 170.011 55.1778 170.054 55.0886C170.096 55.0886 170.096 55.267 170.266 55.4454C170.35 55.4454 170.435 55.5346 170.478 55.6238C170.435 55.5346 170.393 55.4008 170.393 55.267C170.478 55.3562 170.562 55.4008 170.605 55.4008C170.605 55.2224 170.605 55.1332 170.562 55.0886C170.647 55.0886 170.817 55.49 170.902 55.7576C170.902 55.5792 170.902 55.267 171.071 55.1778C171.114 55.3562 171.198 55.4454 171.198 55.4454V55.2224C171.198 55.1778 171.241 55.1332 171.241 55.0886C171.368 55.3116 171.368 55.4454 171.495 55.5792C171.495 55.3116 171.41 55.0886 171.41 54.9548C171.538 54.9994 171.58 55.0886 171.58 55.1332C171.58 55.2224 171.538 55.267 171.495 55.3116C171.707 55.3116 171.792 55.713 171.792 55.7576C171.835 55.713 171.835 55.5792 171.835 55.4454L172.004 55.5792C172.004 55.5346 172.004 55.4454 171.919 55.4454C171.919 55.4454 171.877 55.1778 171.877 55.044C171.877 55.044 172.174 55.6238 172.174 55.936C172.216 55.267 172.216 54.4195 172.386 53.8397C172.343 53.8397 172.301 53.8843 172.301 53.9289C172.301 53.9289 172.259 53.8397 172.259 53.7951C172.259 53.7505 172.301 53.6613 172.386 53.6613C172.301 53.5721 172.301 53.5275 172.301 53.4829C172.301 53.4829 172.386 53.3491 172.386 53.3045C172.343 53.3045 172.343 53.1261 172.259 52.9477C172.386 52.9477 172.428 51.9218 172.428 51.6988C172.513 51.6988 172.513 51.6096 172.555 51.565C172.555 51.7434 172.555 51.8326 172.683 51.8326C172.683 46.9709 174.252 41.4848 174.252 36.757C174.252 34.5715 173.912 32.609 173.234 30.8249ZM168.315 31.8061C168.357 31.8061 168.527 31.7615 168.612 31.7615C167.34 32.6982 166.322 34.9283 165.474 36.2664C165.474 36.757 164.923 37.3368 164.923 37.6936C164.923 37.7828 164.626 38.3181 163.82 40.3252C163.82 40.1468 164.032 39.5669 164.117 39.1209C163.99 39.2101 163.99 39.2547 163.82 39.4777C163.99 38.0504 165.05 36.534 165.092 36.2664C165.092 36.0433 165.22 35.5527 165.432 35.5527C165.389 35.3743 165.347 35.3297 165.347 35.3297C165.304 35.3297 165.22 35.5081 165.05 35.5973C165.262 34.3484 166.322 32.8766 167.213 31.9845C167.297 31.8061 167.891 31.4939 167.891 31.2709C167.891 30.9587 168.061 30.9587 168.23 30.9587C168.357 30.9587 168.612 30.691 168.739 30.5572C168.739 30.691 168.697 30.691 168.697 30.7357C168.697 30.8695 168.739 30.9141 168.781 30.9141C168.866 30.9141 169.036 30.7357 169.036 30.7803C169.036 30.7803 168.993 30.8695 168.993 30.9141H169.29C169.121 31.2263 168.612 31.5385 168.315 31.8061ZM197.715 45.053C197.757 45.053 197.884 45.053 197.969 45.0084C197.842 44.9638 197.842 44.9192 197.842 44.83C197.842 44.7408 197.884 44.6516 197.884 44.5624C197.884 44.5178 197.884 44.4732 197.799 44.4732H197.63C197.587 44.4732 197.503 44.4732 197.503 44.4286C197.503 44.384 197.503 44.3394 197.545 44.2948C196.951 44.161 196.697 44.0718 195.594 44.0272C195.213 40.4144 193.898 28.4609 192.965 26.1862C192.838 26.1416 192.753 26.1416 192.711 26.0078C192.584 26.0078 192.541 25.9186 192.456 25.9186C192.456 26.1416 192.626 26.32 192.626 26.4092C192.457 26.32 192.456 26.1416 192.16 26.1416C192.16 26.0078 192.117 26.0078 192.032 25.9186C192.032 26.0078 192.16 26.1416 192.16 26.1416C192.117 26.097 192.244 26.5876 192.329 26.7214C192.16 26.7214 192.117 26.543 192.032 26.543C191.863 26.4092 191.82 26.1416 191.608 26.0078V26.1862C191.566 26.097 191.566 26.32 191.566 26.32C191.566 26.32 191.439 26.1416 191.354 26.1416C191.481 26.2308 191.566 26.3646 191.566 26.4984C191.269 26.4984 191.142 26.2308 191.015 26.0078C191.015 26.1416 190.803 26.097 190.803 26.1416C190.718 26.1416 190.718 26.0524 190.718 26.0524C190.676 26.0524 190.506 26.0078 190.506 26.0078C189.955 25.6956 190.506 25.5172 189.912 25.2942H189.7C186.52 25.2942 184.739 31.3601 183.552 33.5456C182.025 37.2476 180.541 40.7266 179.354 44.2502C179.142 44.4286 178.718 44.9192 178.718 45.3652C178.718 45.4991 178.76 45.6329 178.845 45.7667C178.294 47.2386 177.064 50.9405 177.064 52.0556C176.979 52.5016 176.937 52.9031 176.937 53.3045C176.937 53.9289 177.064 54.5979 177.276 55.267L177.573 55.5346L177.954 55.7576C177.997 56.5605 178.463 56.2036 178.887 56.6497C179.311 56.7389 179.227 56.7835 179.651 56.7835C180.287 56.7835 181.559 56.6051 182.152 56.6051C183.17 53.4829 184.697 49.6917 185.587 47.1939C186.435 47.0601 190.209 47.0155 191.481 47.0155C191.82 50.8067 192.244 54.3749 192.753 58.0323C192.881 58.4784 192.838 58.746 192.965 59.0136C193.22 58.9244 193.093 58.6122 193.22 58.4784C193.22 58.3892 193.347 58.3892 193.347 58.3892V58.0323C193.347 57.9431 193.389 57.8539 193.389 57.6755C193.432 57.8539 193.432 57.9431 193.432 58.0323C193.474 57.9877 193.474 57.8985 193.474 57.8093C193.474 57.7201 193.474 57.6309 193.559 57.6309H193.686C193.729 57.6309 193.771 57.8093 193.771 57.8539V58.0323C193.771 58.2107 193.771 58.2999 193.813 58.2999C193.898 58.2999 193.941 58.0323 193.941 57.8093C194.025 57.7647 194.11 58.1661 194.11 58.1215C194.237 58.1215 194.237 58.0323 194.322 58.0323C194.365 58.0323 194.619 58.2999 194.704 58.4784C194.746 58.4784 194.746 58.1661 194.746 58.1661C194.831 58.1661 194.831 58.2553 194.831 58.2553C195.043 58.2553 195.086 57.8539 195.086 57.7201V57.2295C195.17 57.4525 195.086 57.6755 195.255 58.0323C195.34 58.3446 195.34 58.6568 195.467 58.9244C195.467 58.7014 195.467 58.2553 195.552 58.1661C195.552 58.1215 195.467 58.1215 195.467 58.0323C195.467 57.9431 195.594 57.1403 195.637 57.0511C195.679 57.3187 195.679 57.8539 195.934 57.9431V57.4971L196.061 57.2295C196.103 57.2741 196.103 57.3187 196.103 57.3633C196.103 57.4079 196.103 57.4971 196.146 57.5417C196.188 57.5863 196.358 57.8985 196.358 57.9431C196.358 57.3633 196.57 56.2036 196.57 55.2224C196.57 54.9994 196.57 54.821 196.527 54.6426C196.315 52.234 196.061 49.5133 195.891 47.1047C196.188 47.0155 196.4 47.0155 196.697 46.9263C196.739 46.8817 196.4 46.6587 196.4 46.6141H196.612C196.697 46.5695 196.866 46.5249 196.994 46.5249C196.994 46.5249 197.291 46.3019 197.291 46.1681C197.291 45.9897 197.291 45.9451 197.418 45.9451C197.418 45.8113 197.545 45.7221 197.63 45.7221C197.715 45.6775 197.757 45.6329 197.757 45.5883C197.757 45.5437 197.715 45.4545 197.715 45.4098C197.715 45.3652 197.757 45.3206 197.842 45.3206C197.799 45.276 197.715 45.1422 197.715 45.053ZM186.69 43.8042C188.343 39.2547 189.276 37.2476 190.336 33.7686C190.379 36.757 190.888 40.1022 191.227 43.8042C189.997 43.8042 189.191 43.7596 188.259 43.7596C187.792 43.7596 187.283 43.7596 186.69 43.8042ZM224.443 28.1933C223.976 28.1933 223.001 26.4984 222.662 26.2754C222.662 26.2754 222.619 26.4092 222.577 26.4092C222.577 26.4092 222.535 26.3646 222.535 26.2754H222.407C222.195 26.2754 221.983 26.32 221.983 27.0783C219.863 33.0996 218.973 40.236 217.446 49.1565C217.404 49.3795 217.361 49.5133 217.192 49.8255C217.022 49.6025 216.937 49.2011 216.852 48.8442C216.216 45.5883 215.877 35.5973 214.69 33.5456C214.69 33.5456 214.478 33.278 214.478 33.0996L214.308 32.832C213.121 30.6464 211.255 27.3905 208.923 27.3905C208.117 27.3905 207.269 27.7919 206.379 28.6839C202.732 33.1442 201.078 40.6374 201.078 47.7292C201.078 49.1565 201.163 50.5837 201.29 51.9664C201.46 52.1894 201.46 52.5462 201.587 52.8139H201.757C202.054 52.9923 202.223 53.1707 202.35 53.1707C202.393 53.1707 202.647 53.3937 202.817 53.3937L203.029 53.7059L203.156 53.6613C203.326 53.8397 203.538 54.2411 203.707 54.5087C203.835 54.6426 203.835 55.0886 204.047 55.3562C204.174 55.49 204.343 56.0252 204.64 56.0252C205.064 55.713 205.191 54.6426 205.361 53.8843C206.082 46.6141 206.93 37.5598 210.153 31.2709C210.577 31.8507 210.534 33.3672 210.704 34.3038C211.17 39.0317 211.891 52.3678 214.351 56.2482C214.987 56.8281 215.92 57.1403 216.81 57.1403C218.294 57.1403 219.778 56.2928 220.245 54.2411C222.195 45.1422 223.001 37.1584 224.358 30.6464C224.612 30.6464 224.74 28.4609 224.74 28.0149L224.612 28.0595C224.57 28.1487 224.527 28.1933 224.443 28.1933ZM207.481 34.6607C207.354 34.7499 207.312 34.8391 207.312 34.9729C207.396 34.9283 207.396 34.9729 207.481 34.7945C207.481 35.4189 206.972 36.4894 206.76 37.203C206.676 37.1584 206.676 37.0692 206.676 37.0246C206.676 36.8462 206.93 36.6678 206.93 36.534C206.93 36.4894 206.888 36.4448 206.845 36.4448C206.845 35.9541 207.015 35.3297 207.184 35.3297C207.184 35.4635 207.057 35.6865 207.057 35.8203C207.184 35.8203 207.057 35.5527 207.227 35.4635C207.227 34.6607 207.608 34.0808 207.778 33.4564C207.736 33.4118 207.736 33.3672 207.736 33.3226C207.736 33.1442 207.905 32.9212 208.033 32.9212C207.99 32.9212 207.948 32.8766 207.948 32.832C207.948 32.7874 207.948 32.6982 207.99 32.6536C207.948 32.6536 207.99 32.6982 207.99 32.6536C207.99 32.5644 207.905 32.5197 207.905 32.4751C207.99 32.4751 207.99 32.5197 208.033 32.5197C208.033 32.4751 208.075 32.4305 208.117 32.3859V32.2075C208.202 31.9845 208.329 31.8061 208.414 31.4939C208.414 31.5831 208.414 31.6723 208.372 31.7169C208.457 31.4939 208.669 31.2709 208.669 31.2709C208.669 31.2263 209.347 29.8882 209.601 29.8436C209.601 29.9774 209.474 29.9774 209.474 30.1558C209.474 30.1558 209.432 30.6018 209.305 30.7357C209.305 30.691 209.347 30.691 209.347 30.6018C209.347 30.6018 209.305 30.691 209.177 30.7357C209.177 30.7803 209.22 30.8695 209.22 30.9141C209.22 30.9587 209.177 31.0033 209.135 31.0033L209.177 30.8249C209.093 30.9141 208.965 31.3601 208.838 31.4493C208.881 31.4939 208.881 31.5385 208.881 31.5831C208.881 31.6277 208.584 31.8953 208.584 32.0737C208.584 32.1183 208.626 32.1629 208.626 32.2075C208.541 32.2075 208.414 32.5197 208.372 32.6536C208.329 32.8766 208.16 33.1888 208.033 33.4564C208.033 33.501 207.99 33.5456 207.99 33.5902C207.99 33.6794 208.117 33.501 208.245 33.1888V33.278C208.033 33.8132 207.778 34.2146 207.566 34.7945C207.566 34.7499 207.566 34.6607 207.481 34.6607ZM209.05 32.9658C209.008 33.055 208.881 33.4118 208.881 33.4564C208.881 33.278 208.965 32.8766 209.093 32.6982C209.093 32.609 209.22 32.4305 209.22 32.2967C208.753 33.1442 208.626 33.6794 208.626 33.724C208.669 33.6794 208.711 33.6794 208.753 33.6794C208.329 34.9283 208.075 35.7757 207.693 36.7124C207.693 36.311 207.948 36.0879 207.948 35.7311C207.948 35.7311 207.82 35.7311 207.82 35.8203C207.82 35.8649 207.778 36.6678 207.481 36.6678C207.524 36.2664 207.566 35.2851 207.778 35.0621C207.778 35.1513 207.82 35.1513 207.82 35.1513C207.778 35.1067 207.778 35.0175 207.778 34.9729C207.905 34.7945 207.905 34.7499 207.905 34.5715C208.075 34.5715 208.117 34.4823 208.117 34.3038C208.117 34.3931 208.16 34.3931 208.202 34.3931C208.245 34.3931 208.329 34.3484 208.329 34.3484C208.457 34.4823 208.584 32.9658 208.838 32.9658C208.838 32.9212 208.796 32.8766 208.796 32.832C208.838 32.7874 208.711 32.7874 208.669 32.7874C208.626 32.7874 208.838 32.609 208.881 32.4751C208.881 32.5644 208.838 32.6536 208.838 32.7428C209.135 32.2075 209.347 31.4493 209.686 30.9141C209.813 31.0033 209.813 31.0925 209.813 31.2263C209.601 31.4047 209.093 32.6982 209.05 32.9658ZM208.584 30.7357C208.584 30.7803 208.626 30.691 208.626 30.6464C208.626 30.691 208.669 30.7803 208.669 30.7803C208.669 30.8695 208.626 30.9587 208.626 31.0479C208.711 30.8695 208.796 30.691 208.838 30.4234C209.008 30.4234 209.22 29.8882 209.517 29.576C209.177 30.1112 208.753 30.7803 208.499 31.4493C208.499 31.3601 208.541 31.2709 208.541 31.2263C208.457 31.4493 208.245 31.6723 208.16 31.7615C208.16 31.8507 208.075 31.9845 208.075 31.9399C208.075 31.8507 208.16 31.8061 208.16 31.7615C208.16 31.8061 208.329 31.1371 208.584 30.7357ZM208.838 31.4493L209.135 31.0925C209.135 31.1817 208.965 31.3601 208.965 31.4493C209.093 31.4493 209.093 31.3601 209.135 31.3601C209.135 31.8953 208.838 32.2075 208.584 32.5197C208.711 32.2075 208.881 31.8507 208.965 31.5831C208.965 31.4493 208.838 31.4493 208.838 31.4493ZM207.566 32.9658C207.608 33.0104 207.608 33.055 207.608 33.0996C207.608 33.3672 207.312 34.0362 207.184 34.2146C207.184 34.0808 207.227 33.9024 207.227 33.724C207.269 33.724 207.481 33.1888 207.566 32.9658ZM216.004 45.7667C215.962 45.4991 215.92 45.4098 215.92 45.4098C215.92 45.3652 215.877 44.9192 215.877 44.9192C215.877 44.8746 215.75 44.3394 215.75 44.0718C215.75 43.938 215.792 43.8042 215.75 43.715C215.792 43.715 215.792 43.6704 215.792 43.4919L216.047 45.9005C216.047 45.9451 216.004 45.8113 216.004 45.7667ZM215.58 41.8417C215.623 42.1093 215.708 42.5553 215.708 42.9121V43.4919C215.665 43.4919 215.665 43.4473 215.665 43.3581C215.623 43.2689 215.623 43.2243 215.623 43.1797V42.4215C215.623 42.1985 215.58 41.9755 215.58 41.8417ZM208.117 32.9658C207.948 33.4118 207.693 33.6794 207.693 33.9024C207.693 33.8132 207.778 33.724 207.905 33.724C207.905 33.8578 208.117 33.1442 208.117 32.9658ZM208.075 33.947C208.075 33.724 208.202 33.501 208.329 33.3672C208.245 33.501 208.245 33.5902 208.202 33.6794C208.245 33.7686 208.372 33.6794 208.372 33.8132C208.329 33.8132 208.117 34.0362 208.117 34.0808C208.117 34.0362 208.075 33.9916 208.075 33.947ZM207.99 32.0291C207.99 32.3859 207.736 32.6536 207.651 32.9212L207.693 32.7428C207.82 32.5197 207.863 32.2521 207.99 32.0291ZM208.414 32.4305C208.329 32.5197 208.245 32.609 208.245 32.6982C208.372 32.6982 208.414 32.5197 208.414 32.4305ZM208.372 32.1183C208.372 32.0737 208.329 32.0291 208.329 31.9845V31.8953L208.117 32.3859C208.202 32.2075 208.329 32.0737 208.372 32.1183ZM245.572 45.053C245.615 45.053 245.742 45.053 245.827 45.0084C245.699 44.9638 245.699 44.9192 245.699 44.83C245.699 44.7408 245.742 44.6516 245.742 44.5624C245.742 44.5178 245.742 44.4732 245.657 44.4732H245.487C245.445 44.4732 245.36 44.4732 245.36 44.4286C245.36 44.384 245.36 44.3394 245.403 44.2948C244.809 44.161 244.555 44.0718 243.452 44.0272C243.07 40.4144 241.756 28.4609 240.823 26.1862C240.696 26.1416 240.611 26.1416 240.569 26.0078C240.441 26.0078 240.399 25.9186 240.314 25.9186C240.314 26.1416 240.484 26.32 240.484 26.4092C240.314 26.32 240.314 26.1416 240.017 26.1416C240.017 26.0078 239.975 26.0078 239.89 25.9186C239.89 26.0078 240.017 26.1416 240.017 26.1416C239.975 26.097 240.102 26.5876 240.187 26.7214C240.017 26.7214 239.975 26.543 239.89 26.543C239.721 26.4092 239.678 26.1416 239.466 26.0078V26.1862C239.424 26.097 239.424 26.32 239.424 26.32C239.424 26.32 239.297 26.1416 239.212 26.1416C239.339 26.2308 239.424 26.3646 239.424 26.4984C239.127 26.4984 239 26.2308 238.872 26.0078C238.872 26.1416 238.66 26.097 238.66 26.1416C238.576 26.1416 238.576 26.0524 238.576 26.0524C238.533 26.0524 238.364 26.0078 238.364 26.0078C237.812 25.6956 238.364 25.5172 237.77 25.2942H237.558C234.378 25.2942 232.597 31.3601 231.409 33.5456C229.883 37.2476 228.399 40.7266 227.211 44.2502C226.999 44.4286 226.575 44.9192 226.575 45.3652C226.575 45.4991 226.618 45.6329 226.703 45.7667C226.151 47.2386 224.922 50.9405 224.922 52.0556C224.837 52.5016 224.794 52.9031 224.794 53.3045C224.794 53.9289 224.922 54.5979 225.134 55.267L225.431 55.5346L225.812 55.7576C225.855 56.5605 226.321 56.2036 226.745 56.6497C227.169 56.7389 227.084 56.7835 227.508 56.7835C228.144 56.7835 229.416 56.6051 230.01 56.6051C231.028 53.4829 232.554 49.6917 233.445 47.1939C234.293 47.0601 238.067 47.0155 239.339 47.0155C239.678 50.8067 240.102 54.3749 240.611 58.0323C240.738 58.4784 240.696 58.746 240.823 59.0136C241.077 58.9244 240.95 58.6122 241.077 58.4784C241.077 58.3892 241.205 58.3892 241.205 58.3892V58.0323C241.205 57.9431 241.247 57.8539 241.247 57.6755C241.289 57.8539 241.289 57.9431 241.289 58.0323C241.332 57.9877 241.332 57.8985 241.332 57.8093C241.332 57.7201 241.332 57.6309 241.417 57.6309H241.544C241.586 57.6309 241.629 57.8093 241.629 57.8539V58.0323C241.629 58.2107 241.629 58.2999 241.671 58.2999C241.756 58.2999 241.798 58.0323 241.798 57.8093C241.883 57.7647 241.968 58.1661 241.968 58.1215C242.095 58.1215 242.095 58.0323 242.18 58.0323C242.222 58.0323 242.477 58.2999 242.562 58.4784C242.604 58.4784 242.604 58.1661 242.604 58.1661C242.689 58.1661 242.689 58.2553 242.689 58.2553C242.901 58.2553 242.943 57.8539 242.943 57.7201V57.2295C243.028 57.4525 242.943 57.6755 243.113 58.0323C243.198 58.3446 243.198 58.6568 243.325 58.9244C243.325 58.7014 243.325 58.2553 243.41 58.1661C243.41 58.1215 243.325 58.1215 243.325 58.0323C243.325 57.9431 243.452 57.1403 243.494 57.0511C243.537 57.3187 243.537 57.8539 243.791 57.9431V57.4971L243.919 57.2295C243.961 57.2741 243.961 57.3187 243.961 57.3633C243.961 57.4079 243.961 57.4971 244.003 57.5417C244.046 57.5863 244.215 57.8985 244.215 57.9431C244.215 57.3633 244.427 56.2036 244.427 55.2224C244.427 54.9994 244.427 54.821 244.385 54.6426C244.173 52.234 243.918 49.5133 243.749 47.1047C244.046 47.0155 244.258 47.0155 244.555 46.9263C244.597 46.8817 244.258 46.6587 244.258 46.6141H244.47C244.555 46.5695 244.724 46.5249 244.851 46.5249C244.851 46.5249 245.148 46.3019 245.148 46.1681C245.148 45.9897 245.148 45.9451 245.275 45.9451C245.275 45.8113 245.403 45.7221 245.487 45.7221C245.572 45.6775 245.615 45.6329 245.615 45.5883C245.615 45.5437 245.572 45.4545 245.572 45.4098C245.572 45.3652 245.615 45.3206 245.699 45.3206C245.657 45.276 245.572 45.1422 245.572 45.053ZM234.547 43.8042C236.201 39.2547 237.134 37.2476 238.194 33.7686C238.236 36.757 238.745 40.1022 239.085 43.8042C237.855 43.8042 237.049 43.7596 236.116 43.7596C235.65 43.7596 235.141 43.7596 234.547 43.8042ZM266.364 39.8791C263.184 39.8791 259.919 40.6374 258.986 40.6374C258.604 40.5482 258.18 40.5036 257.756 40.5036C257.374 40.5036 256.993 40.5482 256.611 40.7712C257.162 38.4073 258.689 35.3297 260.3 33.6348C261.53 32.4751 262.675 31.5831 264.159 30.9587C264.329 31.0479 264.541 31.0925 264.753 31.0925C265.261 31.0925 265.94 30.9141 265.94 30.2896C265.94 28.9516 262.887 26.8998 261.615 26.8998C261.445 26.8998 261.318 26.8998 261.233 26.989C260.936 26.8552 260.427 26.7214 260.003 26.7214C259.791 26.7214 259.622 26.766 259.452 26.8106C254.067 28.8177 251.226 34.3038 249.826 39.7007C249.148 42.4215 248.639 45.2314 248.639 47.9522C248.639 49.1119 248.724 50.2269 248.936 51.342C248.936 51.4758 248.978 51.7434 249.021 51.9664C249.402 54.9102 252.328 57.0065 255.042 57.0065C255.848 57.0065 256.653 56.8281 257.374 56.4266C258.689 55.0886 260.724 54.8656 261.487 53.0369C263.184 50.4053 263.184 47.3278 264.116 44.4286V43.8934C263.904 44.6516 263.141 46.8817 262.929 48.0414C263.141 46.3465 263.692 45.0976 264.074 43.5812C264.795 43.1351 265.261 43.2243 266.152 43.0905C266.788 43.0459 267.678 43.0459 268.23 42.7783C268.696 42.7783 269.247 42.7337 269.587 42.5107C269.587 42.4661 269.883 42.3323 269.883 42.2877H269.714C269.714 42.2431 269.883 42.1985 269.841 42.1539C269.375 42.2431 269.375 42.2877 269.29 42.2877C269.247 42.2877 269.544 42.1093 269.544 41.9755C269.459 41.9755 269.205 42.0201 268.951 42.0201C268.823 41.9309 268.696 41.8863 268.569 41.8863C268.484 41.8863 268.357 41.8863 268.272 41.8417C268.442 41.7078 268.696 41.6186 268.696 41.4402C268.696 41.3956 268.993 41.351 269.12 41.351C269.163 41.351 269.29 41.3956 269.247 41.351C269.12 41.3064 269.078 41.2618 269.078 41.2172C269.078 41.1726 269.247 41.1726 269.417 41.1726H269.799C269.756 41.351 269.459 41.1726 269.459 41.3956C269.629 41.3956 269.671 41.3956 269.671 41.4402C269.671 41.5294 269.544 41.6186 269.544 41.6632C269.544 41.7078 269.883 41.5294 270.053 41.5294C270.053 41.6186 269.968 41.7078 269.968 41.7525C270.307 41.574 270.223 41.1726 270.35 40.905C270.477 40.905 270.435 40.8604 270.477 40.8604C270.392 40.682 270.477 40.5036 270.223 40.4144C269.078 40.013 267.721 39.8791 266.364 39.8791ZM256.06 53.0369C255.381 51.8326 255.297 49.8701 255.297 48.4874C255.297 46.2127 255.636 43.938 256.314 41.8863C256.357 42.0201 256.526 42.3769 256.696 42.4215C256.653 42.4661 256.993 42.5107 256.993 42.5999C257.035 42.5999 256.865 42.6891 256.865 42.7783C256.993 42.8229 257.374 42.9567 257.374 43.0459C257.374 43.1797 257.502 43.1797 257.544 43.1797C257.544 43.2689 257.502 43.2689 257.502 43.3135C257.502 43.3581 257.629 43.4473 257.671 43.5365C257.798 43.5811 257.883 43.6258 258.01 43.6258C258.053 43.715 258.01 43.8934 258.222 43.8934C258.35 43.9826 258.392 44.0272 258.477 44.0272C258.604 44.0272 258.774 43.938 258.858 43.938C258.901 44.0718 258.986 44.161 258.986 44.2502C258.901 44.2502 259.24 44.607 259.367 44.607C258.943 46.6587 257.502 51.8326 256.06 53.0369ZM269.544 40.8604C269.629 40.905 269.756 40.9496 269.756 40.9942C269.714 40.9942 269.587 41.0834 269.502 41.0834C269.502 41.0834 269.544 40.9942 269.544 40.8604ZM269.883 41.3064C269.841 41.3064 269.799 41.2618 269.799 41.1726H269.968C269.968 41.2618 269.926 41.3064 269.883 41.3064ZM287.153 29.1746C285.796 27.8365 282.15 27.3905 278.757 27.3905C277.655 27.3905 275.916 27.3013 274.475 27.3013H273.796C272.355 27.3905 270.574 27.6135 270.574 28.5947C270.616 29.0408 270.955 29.3976 271.294 29.576C270.531 35.6865 269.81 41.2618 269.005 46.9263C268.962 48.1306 268.538 50.4945 268.538 52.5908V52.8585C268.581 54.8656 269.005 56.4713 270.531 56.5605C270.658 56.4266 270.658 56.1144 270.828 55.936C271.549 56.4713 272.482 56.6051 273.499 56.6051H273.881C275.111 56.5605 279.733 55.8468 279.733 55.7576C281.005 55.49 279.436 55.1778 281.768 55.0886C281.768 54.6872 282.786 54.8656 282.786 54.6872H282.998C282.913 54.6426 282.828 54.6872 282.786 54.6872C282.743 54.6872 282.743 54.6426 282.701 54.5979H282.871C282.828 54.5533 283.083 54.5533 283.295 54.5533C283.507 54.5533 283.719 54.5533 283.719 54.4641C283.719 54.4641 283.549 54.4195 283.252 54.3749C283.337 54.3749 283.379 54.3303 283.422 54.2411H283.04C283.125 54.1519 283.295 54.1965 283.422 54.1073C283.549 54.1073 283.676 54.1519 283.804 54.1519C283.888 54.1519 283.973 54.1519 284.016 54.1073C283.634 53.7059 283.167 53.6167 282.531 53.6167H281.98C281.683 53.6167 281.344 53.6167 281.005 53.6613C280.454 53.5721 279.987 53.4829 279.521 53.4829L277.231 53.6613H276.68C276.171 53.6613 275.704 53.6167 275.28 53.5721C275.238 53.2599 275.238 52.9031 275.238 52.5908V51.9218C275.238 49.3795 275.662 47.1493 275.916 44.5624C278.418 44.4732 279.987 44.2502 281.556 44.161C282.277 44.1164 282.489 44.1164 282.531 44.1164C282.531 44.1164 282.447 44.0272 282.362 43.9826C282.574 44.0272 282.871 44.0718 283.125 44.0718L283.379 43.9826C283.634 43.9826 284.058 43.8934 284.058 43.6704C284.27 43.6258 284.228 43.5812 284.991 43.3581C283.422 42.2431 281.217 42.0201 279.394 42.0201C278.121 42.0201 277.019 42.1093 276.256 42.1539L277.994 30.2896C279.351 30.245 284.228 29.9328 284.567 29.8882C284.482 29.8882 284.397 29.8436 284.355 29.799C284.397 29.799 285.076 29.8436 285.457 29.8436C285.457 29.799 285.16 29.7544 285.033 29.6206C285.203 29.6206 285.457 29.7098 285.627 29.7098C285.712 29.7098 285.754 29.7098 285.796 29.6652C285.796 29.6652 285.754 29.6206 285.669 29.576H285.881C285.881 29.5314 285.924 29.4868 285.966 29.4868C286.008 29.4868 286.093 29.576 286.136 29.576C286.136 29.576 286.263 29.4868 286.263 29.4422C286.051 29.4422 285.839 29.353 285.627 29.2638C285.627 29.2192 285.712 29.2192 285.754 29.2192H286.136C286.305 29.2192 286.348 29.1746 286.348 29.0854C286.39 29.0854 286.857 29.1746 287.153 29.1746ZM286.602 29.4422C286.475 29.3084 286.433 29.3084 286.39 29.3084C286.433 29.4422 286.517 29.4422 286.602 29.4422ZM305.57 55.4008C305.527 55.3116 305.527 55.267 305.4 55.1332C305.358 55.0886 305.485 55.0886 305.57 55.0886C305.612 55.0886 305.654 55.1332 305.697 55.1332C304.722 52.3678 303.407 49.6917 302.008 47.1493C300.269 44.0718 298.912 40.5928 297.343 37.7828C300.057 36.9354 302.686 34.5715 302.686 31.9845C302.686 28.4609 299.082 26.989 297.047 26.766C296.114 26.2754 296.241 25.9186 295.647 25.7848C295.562 25.7848 295.478 25.7848 295.435 25.874C295.138 25.8294 294.884 25.7848 294.63 25.7848C294.418 25.8294 294.248 25.8294 294.036 25.8294C293.4 25.8294 292.721 25.7402 292.085 25.7402C291.407 25.7402 290.728 25.8294 290.177 26.32C289.965 26.8998 288.82 26.4538 288.566 27.2567C288.566 27.3459 288.439 27.3459 288.439 27.4351C288.523 27.4797 288.608 27.4797 288.651 27.4797C288.778 27.4797 288.905 27.4351 288.99 27.4351C288.947 27.5243 288.863 27.5243 288.863 27.5243C288.947 27.6581 288.99 27.6581 289.117 27.6581C288.651 37.7828 286.785 46.4357 286.573 56.0252C286.573 56.9619 286.573 58.0323 287.463 58.0323C287.463 58.0323 287.463 57.2741 287.803 57.2741C287.93 57.2741 288.227 56.9173 288.396 56.9173C288.396 56.9619 288.354 57.0511 288.354 57.0957C288.396 57.0957 288.778 56.9619 288.99 56.8727C288.99 56.8727 289.032 56.9173 289.117 56.9173C289.287 56.9173 289.626 56.8727 289.753 56.7389C289.838 56.7389 289.923 56.6943 289.965 56.6943C290.008 56.7835 290.092 56.6943 290.092 56.8281C290.092 57.0065 290.135 57.0511 290.135 57.0511C290.22 57.0511 290.22 57.0065 290.22 56.9173C290.22 56.6943 290.262 56.6943 290.304 56.6943C290.389 56.6943 290.389 56.7389 290.389 56.7835C290.389 56.8281 290.516 56.6943 290.601 56.6943C290.601 56.8281 290.559 57.0065 290.559 57.0065C290.644 57.0065 290.856 56.6051 290.898 56.6051C290.94 56.6051 290.94 56.7389 290.94 56.7389C290.94 56.7389 291.025 56.6943 291.025 56.5605C291.068 56.5605 291.11 56.6497 291.152 56.6943C291.28 56.6943 291.237 56.9173 291.364 56.9173C291.364 56.8281 291.364 56.7835 291.407 56.7389C291.407 56.6943 291.534 56.6943 291.534 56.6943C291.534 56.7835 291.704 56.7389 291.704 56.8281C291.704 56.8281 292.467 56.6497 292.552 56.6497C292.806 56.6497 292.976 56.6497 292.976 56.9173C292.976 56.8727 293.018 56.7389 293.061 56.7389C293.061 56.7389 293.061 56.7835 293.188 56.8727C293.527 56.8727 294.63 43.715 294.757 42.6891C296.114 46.0789 300.1 53.7059 300.99 55.3116C301.329 55.8914 301.626 56.2036 302.22 56.4266C302.305 56.3374 302.559 56.382 302.559 56.2036C302.559 56.2036 302.559 56.159 302.517 56.0698L302.856 56.2482C302.813 56.2036 302.729 56.0252 302.729 55.8914C302.729 55.8468 303.025 56.2482 303.237 56.2482C303.237 56.2036 303.322 56.3374 303.365 56.4266C303.365 56.2482 303.322 56.159 303.322 56.0252C303.322 56.0698 303.45 56.2036 303.534 56.2036C303.534 56.0252 303.534 55.9806 303.619 55.9806C303.534 55.8468 303.492 55.713 303.492 55.713C303.789 55.936 303.789 56.0698 304.128 56.0698C304.213 56.0698 304.255 56.0698 304.255 56.0252C304.255 55.9806 304.17 55.8468 304.17 55.8022C304.128 55.6684 304.086 55.5346 304.086 55.4008C304.255 55.49 304.298 55.5346 304.34 55.5346C304.382 55.5346 304.425 55.49 304.51 55.49C304.425 55.4008 304.425 55.267 304.425 55.1778C304.552 55.1778 304.722 55.4008 304.806 55.5346V55.1778C304.849 55.1778 305.146 55.267 305.188 55.3116C305.188 55.267 305.188 55.2224 305.273 55.2224C305.442 55.267 305.485 55.4008 305.57 55.4008ZM295.393 35.9541C295.393 35.7757 295.435 35.6419 295.435 35.4635C295.647 33.1888 295.902 31.0925 296.283 28.9516C297.513 28.9962 299.591 29.799 299.591 31.4493C299.591 33.4118 297.767 35.1513 295.393 35.9541ZM288.269 49.9147C288.354 50.0039 288.354 50.0485 288.354 50.1377C288.354 50.2715 288.311 50.3607 288.269 50.4499C288.396 50.4499 288.396 50.4053 288.481 50.4053V51.4758C288.523 51.3866 288.566 51.0298 288.608 51.0298C288.608 51.119 288.566 51.2974 288.566 51.3866L288.693 51.4758C288.693 51.6096 288.566 51.7434 288.566 51.788C288.566 51.7434 288.396 52.011 288.311 52.1448C288.184 52.011 288.142 51.8326 288.142 51.6542C288.142 51.3866 288.227 51.0744 288.227 50.8959C288.227 50.8067 288.184 50.6283 288.184 50.4945C288.184 50.2715 288.227 50.0931 288.269 49.9147ZM287.803 52.1894C287.887 52.1448 287.845 52.0556 288.015 52.0556V52.234C288.015 52.3678 287.972 52.3678 287.93 52.3678C287.887 52.6354 287.845 52.8585 287.76 53.1261C287.76 53.0369 287.718 52.9031 287.718 52.7692C287.718 52.5908 287.76 52.3678 287.803 52.1894ZM288.184 53.8843C288.227 53.9289 288.227 53.9735 288.227 54.0181C288.227 54.1073 288.184 54.1519 288.184 54.2857C288.099 54.2411 288.057 54.0627 288.057 54.0627C288.057 53.8843 288.142 53.3491 288.227 53.3045C288.227 53.3937 288.269 53.4829 288.269 53.5721C288.269 53.7059 288.227 53.7951 288.184 53.8843ZM288.057 55.3562C288.057 55.3116 288.015 55.267 288.015 55.2224C288.015 55.1778 288.099 55.1778 288.142 55.1778C288.142 55.0886 288.057 55.044 288.057 55.044C288.015 54.9548 287.972 54.9102 287.972 54.8656C287.972 54.7764 288.142 55.044 288.142 54.9548L288.227 55.1778L288.142 55.3116C288.269 55.3116 288.269 55.3562 288.269 55.4008C288.269 55.49 288.227 55.6238 288.227 55.6684C288.184 55.713 288.142 55.713 288.099 55.713C288.099 55.6684 288.057 55.3562 288.057 55.3562ZM288.269 52.7246C288.354 52.7693 288.396 52.8585 288.396 52.9477C288.396 53.0369 288.354 53.1261 288.354 53.1707C288.269 53.2153 288.184 53.2153 288.184 53.2153C288.184 53.1707 288.184 53.1261 288.142 53.0815C288.184 52.9923 288.184 52.9477 288.184 52.9031M288.566 49.4241C288.608 49.4687 288.608 49.6917 288.608 49.7809C288.523 49.7809 288.523 49.6917 288.523 49.6025C288.523 49.5133 288.523 49.4687 288.566 49.4241ZM288.778 52.5462C288.82 52.5462 288.735 52.68 288.735 52.7692C288.693 52.7246 288.651 52.68 288.651 52.6354C288.651 52.5908 288.693 52.5462 288.778 52.5462ZM289.032 54.821C288.99 54.6426 288.99 54.5533 288.99 54.5087C289.032 54.5087 289.075 54.5979 289.075 54.6426C289.075 54.7318 289.032 54.7764 289.032 54.821ZM288.947 51.788C288.947 51.8772 288.947 51.9664 288.863 52.0556C288.863 51.9664 288.905 51.7434 288.947 51.788ZM287.76 53.1261C287.803 53.1261 287.803 53.2599 287.803 53.2599C287.803 53.2599 287.76 53.2153 287.76 53.1261Z" fill="black"/>
<mask id="mask0_38_19" style="mask-type:luminance" maskUnits="userSpaceOnUse" x="12" y="12" width="51" height="55">
<path d="M12.1685 12.7995H62.5086V66.2005H12.1685V12.7995Z" fill="white"/>
</mask>
<g mask="url(#mask0_38_19)">
<mask id="mask1_38_19" style="mask-type:luminance" maskUnits="userSpaceOnUse" x="12" y="12" width="51" height="55">
<path d="M12.1685 12.7995H62.5086V66.2005H12.1685V12.7995Z" fill="white"/>
</mask>
<g mask="url(#mask1_38_19)">
<path d="M33.5973 32.691V36.2237C33.5956 36.4144 33.5219 36.5966 33.3925 36.7301C33.2631 36.8637 33.0885 36.9377 32.9072 36.9358H28.5984C28.4185 36.9371 28.2456 36.8625 28.1184 36.7287C27.9911 36.5948 27.9202 36.413 27.9214 36.2237V32.691C27.9202 32.5017 27.9911 32.3198 28.1184 32.186C28.2456 32.0522 28.4185 31.9776 28.5984 31.9789H32.9072C33.0885 31.977 33.2631 32.051 33.3925 32.1846C33.5219 32.3181 33.5956 32.5003 33.5973 32.691Z" fill="#3361E1"/>
</g>
<mask id="mask2_38_19" style="mask-type:luminance" maskUnits="userSpaceOnUse" x="12" y="12" width="51" height="55">
<path d="M12.1685 12.7995H62.5086V66.2005H12.1685V12.7995Z" fill="white"/>
</mask>
<g mask="url(#mask2_38_19)">
<path d="M33.5973 39.2089V42.7417C33.5956 42.9323 33.5219 43.1145 33.3925 43.248C33.2631 43.3815 33.0885 43.4555 32.9073 43.4536H28.5984C28.4185 43.4549 28.2456 43.3803 28.1184 43.2465C27.9911 43.1128 27.9202 42.9309 27.9214 42.7417V39.2089C27.92 39.0195 27.9909 38.8375 28.1181 38.7035C28.2454 38.5695 28.4184 38.4948 28.5984 38.4961H32.9073C33.0887 38.4943 33.2633 38.5684 33.3927 38.7021C33.5222 38.8358 33.5958 39.0181 33.5973 39.2089Z" fill="#3361E1"/>
</g>
<mask id="mask3_38_19" style="mask-type:luminance" maskUnits="userSpaceOnUse" x="12" y="12" width="51" height="55">
<path d="M12.1685 12.7995H62.5086V66.2005H12.1685V12.7995Z" fill="white"/>
</mask>
<g mask="url(#mask3_38_19)">
<path d="M33.5973 46.0417V49.5745C33.5956 49.7652 33.5219 49.9473 33.3925 50.0809C33.2631 50.2144 33.0885 50.2884 32.9073 50.2866H28.5984C28.4185 50.2879 28.2456 50.2133 28.1184 50.0794C27.9911 49.9456 27.9202 49.7637 27.9214 49.5745V46.0417C27.9201 45.8525 27.9911 45.6706 28.1183 45.5367C28.2455 45.4029 28.4185 45.3283 28.5984 45.3296H32.9073C33.0885 45.3277 33.2631 45.4017 33.3925 45.5353C33.522 45.6689 33.5956 45.851 33.5973 46.0417Z" fill="#3361E1"/>
</g>
<mask id="mask4_38_19" style="mask-type:luminance" maskUnits="userSpaceOnUse" x="12" y="12" width="51" height="55">
<path d="M12.1685 12.7995H62.5086V66.2005H12.1685V12.7995Z" fill="white"/>
</mask>
<g mask="url(#mask4_38_19)">
<path d="M20.6834 38.4961H25.0054C25.3792 38.4961 25.6823 38.8148 25.6823 39.208V42.741C25.6823 43.1341 25.3792 43.4529 25.0054 43.4529H20.6834C20.3095 43.4529 20.0063 43.1341 20.0063 42.7408V39.2089C20.0062 39.0199 20.0774 38.8386 20.2044 38.7049C20.3314 38.5712 20.5037 38.4961 20.6834 38.4961Z" fill="#3361E1"/>
</g>
<mask id="mask5_38_19" style="mask-type:luminance" maskUnits="userSpaceOnUse" x="12" y="12" width="51" height="55">
<path d="M12.1685 12.7995H62.5086V66.2005H12.1685V12.7995Z" fill="white"/>
</mask>
<g mask="url(#mask5_38_19)">
<path d="M25.6823 46.0417V49.5745C25.6835 49.7638 25.6126 49.9457 25.4854 50.0795C25.3581 50.2133 25.1852 50.2879 25.0052 50.2866H20.6962C20.3188 50.2903 20.0099 49.9715 20.0063 49.5745V46.0417C20.008 45.8511 20.0817 45.6689 20.2111 45.5354C20.3404 45.4018 20.515 45.3278 20.6962 45.3296H25.0052C25.1852 45.3283 25.3581 45.4029 25.4854 45.5367C25.6126 45.6706 25.6835 45.8525 25.6823 46.0417Z" fill="#3361E1"/>
</g>
<mask id="mask6_38_19" style="mask-type:luminance" maskUnits="userSpaceOnUse" x="12" y="12" width="51" height="55">
<path d="M12.1685 12.7995H62.5086V66.2005H12.1685V12.7995Z" fill="white"/>
</mask>
<g mask="url(#mask6_38_19)">
<path d="M44.5064 31.9789H48.8282C49.2021 31.9789 49.5052 32.2977 49.5052 32.691V36.2237C49.5052 36.617 49.2021 36.9358 48.8282 36.9358H44.5064C44.1325 36.9358 43.8293 36.617 43.8293 36.2237V32.691C43.8293 32.2977 44.1325 31.9789 44.5064 31.9789Z" fill="#3361E1"/>
</g>
<mask id="mask7_38_19" style="mask-type:luminance" maskUnits="userSpaceOnUse" x="12" y="12" width="51" height="55">
<path d="M12.1685 12.7995H62.5086V66.2005H12.1685V12.7995Z" fill="white"/>
</mask>
<g mask="url(#mask7_38_19)">
<path d="M49.5058 39.2096V40.5259C47.4731 40.8562 45.5382 41.6675 43.8468 42.8987L43.8301 42.7418V39.2096C43.8314 39.0189 43.9049 38.8365 44.0342 38.7028C44.1635 38.569 44.3381 38.4949 44.5195 38.4968H48.8282C49.0083 38.4954 49.1814 38.5701 49.3088 38.7041C49.4362 38.838 49.5071 39.0201 49.5058 39.2096Z" fill="#3361E1"/>
</g>
<mask id="mask8_38_19" style="mask-type:luminance" maskUnits="userSpaceOnUse" x="12" y="12" width="51" height="55">
<path d="M12.1685 12.7995H62.5086V66.2005H12.1685V12.7995Z" fill="white"/>
</mask>
<g mask="url(#mask8_38_19)">
<path d="M41.5903 32.691V36.2237C41.5915 36.413 41.5206 36.5948 41.3934 36.7287C41.2662 36.8625 41.0934 36.9371 40.9134 36.9358H36.6044C36.227 36.9395 35.9181 36.6207 35.9146 36.2237V32.691C35.9181 32.2939 36.227 31.9751 36.6044 31.9789H40.9134C41.0934 31.9776 41.2662 32.0522 41.3934 32.186C41.5206 32.3199 41.5915 32.5017 41.5903 32.691Z" fill="#3361E1"/>
</g>
<mask id="mask9_38_19" style="mask-type:luminance" maskUnits="userSpaceOnUse" x="12" y="12" width="51" height="55">
<path d="M12.1685 12.7995H62.5086V66.2005H12.1685V12.7995Z" fill="white"/>
</mask>
<g mask="url(#mask9_38_19)">
<path d="M41.5903 39.2089V42.7417C41.5915 42.9309 41.5206 43.1127 41.3934 43.2465C41.2662 43.3803 41.0933 43.4549 40.9134 43.4536H36.6044C36.4232 43.4554 36.2487 43.3814 36.1193 43.2479C35.9899 43.1144 35.9163 42.9323 35.9146 42.7417V39.2089C35.9161 39.0181 35.9897 38.8358 36.1191 38.7021C36.2485 38.5684 36.4231 38.4943 36.6044 38.4961H40.9134C41.0935 38.4948 41.2665 38.5695 41.3937 38.7035C41.5209 38.8375 41.5917 39.0196 41.5903 39.2089Z" fill="#3361E1"/>
</g>
<mask id="mask10_38_19" style="mask-type:luminance" maskUnits="userSpaceOnUse" x="12" y="12" width="51" height="55">
<path d="M12.1685 12.7995H62.5086V66.2005H12.1685V12.7995Z" fill="white"/>
</mask>
<g mask="url(#mask10_38_19)">
<path d="M41.2097 45.4013C40.0436 46.8336 39.1577 48.494 38.6028 50.2871H36.6049C36.4234 50.2891 36.2486 50.215 36.1189 50.0813C35.9893 49.9476 35.9155 49.7653 35.9138 49.5743V46.0419C35.9155 45.851 35.9893 45.6686 36.1189 45.5349C36.2486 45.4012 36.4234 45.3272 36.6049 45.3291H40.9136C41.0162 45.3291 41.1175 45.3538 41.2097 45.4013Z" fill="#3361E1"/>
</g>
<mask id="mask11_38_19" style="mask-type:luminance" maskUnits="userSpaceOnUse" x="12" y="12" width="51" height="55">
<path d="M12.1685 12.7995H62.5086V66.2005H12.1685V12.7995Z" fill="white"/>
</mask>
<g mask="url(#mask11_38_19)">
<path d="M53.1803 16.9256H49.8974V21.1773C49.9032 21.9652 49.6101 22.723 49.0831 23.2829C48.5561 23.8429 47.8387 24.1587 47.0896 24.1606C45.4816 24.1447 44.2986 22.8775 44.2802 21.1773V16.9256H37.3964V21.1773C37.4616 23.3985 36.3924 24.1183 34.9166 24.1307C33.2182 24.1447 32.1272 23.3948 32.0603 21.1773V16.9256H25.1832V21.1773C25.1832 22.8265 23.9282 24.2257 22.3737 24.1606C20.9682 24.1007 19.6179 23.1361 19.566 21.1773V16.9256H16.2981C14.0224 16.9256 12.1685 18.934 12.1685 21.3963V52.5224C12.1685 54.9919 14.0224 56.9911 16.2981 56.9911H38.1008C37.989 56.2472 37.9331 55.4951 37.9335 54.742C37.9328 54.079 37.9764 53.4167 38.064 52.7602H16.2981L16.0772 52.5224V29.0436H53.3861V40.4786C54.7355 40.6613 56.051 41.0571 57.2882 41.6526V21.3963C57.2882 18.934 55.4409 16.9256 53.1803 16.9256Z" fill="black"/>
</g>
<mask id="mask12_38_19" style="mask-type:luminance" maskUnits="userSpaceOnUse" x="12" y="12" width="51" height="55">
<path d="M12.1685 12.7995H62.5086V66.2005H12.1685V12.7995Z" fill="white"/>
</mask>
<g mask="url(#mask12_38_19)">
<path d="M23.9755 13.2103V22.4669C23.9755 22.4669 23.7023 22.8777 23.2728 22.8777H21.6845C21.2548 22.8777 20.9685 22.4669 20.9685 22.4669V13.2103C20.9685 13.2103 21.2543 12.7995 21.6845 12.7995H23.2726C23.7023 12.7995 23.9755 13.2103 23.9755 13.2103Z" fill="#3361E1"/>
</g>
<mask id="mask13_38_19" style="mask-type:luminance" maskUnits="userSpaceOnUse" x="12" y="12" width="51" height="55">
<path d="M12.1685 12.7995H62.5086V66.2005H12.1685V12.7995Z" fill="white"/>
</mask>
<g mask="url(#mask13_38_19)">
<path d="M48.4887 13.2103V22.4669C48.4887 22.4669 48.2023 22.8777 47.7727 22.8777H46.1845C45.7678 22.8777 45.4817 22.4669 45.4817 22.4669V13.2103C45.4817 13.2103 45.768 12.7995 46.1845 12.7995H47.7727C48.2023 12.7995 48.4887 13.2103 48.4887 13.2103Z" fill="#3361E1"/>
</g>
<mask id="mask14_38_19" style="mask-type:luminance" maskUnits="userSpaceOnUse" x="12" y="12" width="51" height="55">
<path d="M12.1685 12.7995H62.5086V66.2005H12.1685V12.7995Z" fill="white"/>
</mask>
<g mask="url(#mask14_38_19)">
<path d="M36.2385 13.2103V22.4669C36.2385 22.4669 35.9521 22.8777 35.5225 22.8777H33.9343C33.5047 22.8777 33.2183 22.4669 33.2183 22.4669V13.2103C33.2183 13.2103 33.5047 12.7995 33.9343 12.7995H35.5225C35.9521 12.7995 36.2385 13.2103 36.2385 13.2103Z" fill="#3361E1"/>
</g>
<mask id="mask15_38_19" style="mask-type:luminance" maskUnits="userSpaceOnUse" x="12" y="12" width="51" height="55">
<path d="M12.1685 12.7995H62.5086V66.2005H12.1685V12.7995Z" fill="white"/>
</mask>
<g mask="url(#mask15_38_19)">
<path d="M54.9409 51.3236L52.5803 55.5227L52.9929 56.647C53.1083 57.2618 52.1238 57.9444 51.5893 57.2982C51.2259 58.0042 49.9084 57.3567 50.2432 56.517L50.8804 55.3824L48.6302 49.1933C48.4315 48.3421 49.7298 47.7312 50.0712 48.6255L51.8847 53.5993L53.5864 50.5596C53.7467 50.2076 54.3031 50.1826 54.6071 50.366C54.9057 50.5739 55.0409 50.962 54.9409 51.3236Z" fill="black"/>
</g>
<mask id="mask16_38_19" style="mask-type:luminance" maskUnits="userSpaceOnUse" x="12" y="12" width="51" height="55">
<path d="M12.1685 12.7995H62.5086V66.2005H12.1685V12.7995Z" fill="white"/>
</mask>
<g mask="url(#mask16_38_19)">
<path d="M51.6043 43.2834C45.5892 43.2894 40.717 48.4222 40.7207 54.7493C40.7244 61.0763 45.6025 66.2029 51.6176 66.2012C57.6327 66.1995 62.5082 61.0702 62.5087 54.7432C62.5005 48.4138 57.6217 43.2865 51.6043 43.2834ZM52.1764 63.8978V61.6406C52.1764 61.5718 51.9704 61.3989 51.6092 61.3972C51.2969 61.3959 51.0436 61.5047 51.0436 61.6406V63.898C46.7127 63.6015 43.246 60.0044 42.9052 55.4533H45.1102C45.2409 55.4533 45.3461 55.1851 45.3461 54.8565C45.3461 54.5279 45.2409 54.2616 45.1102 54.2616H42.8908C43.1312 49.6169 46.631 45.8925 51.0436 45.5855V47.8429C51.0436 47.9786 51.2969 48.0893 51.6092 48.0893C51.9214 48.0893 52.1764 47.9786 52.1764 47.8429V45.5855C56.5879 45.8943 60.0862 49.6179 60.3274 54.2615H58.2291C58.0747 54.2762 57.9765 54.507 57.9934 54.8563C58.0101 55.2119 58.077 55.4463 58.2291 55.4532H60.313C59.9708 60.0028 56.5059 63.5988 52.1764 63.8978Z" fill="#3361E1"/>
</g>
</g>
</g>
<defs>
<clipPath id="clip0_38_19">
<rect width="316" height="79" fill="white"/>
</clipPath>
</defs>
</svg>
