<svg width="46" height="58" viewBox="0 0 46 58" fill="none" xmlns="http://www.w3.org/2000/svg">
<path fill-rule="evenodd" clip-rule="evenodd" d="M9.821 2.87501C9.02952 4.68851 8.6223 6.64631 8.625 8.62501C8.625 10.15 9.2308 11.6125 10.3091 12.6909C11.3875 13.7692 12.85 14.375 14.375 14.375H31.625C33.15 14.375 34.6125 13.7692 35.6909 12.6909C36.7692 11.6125 37.375 10.15 37.375 8.62501C37.375 6.58088 36.9495 4.63451 36.179 2.87501H40.25C41.775 2.87501 43.2375 3.48081 44.3159 4.55914C45.3942 5.63748 46 7.10001 46 8.62501V51.75C46 53.275 45.3942 54.7375 44.3159 55.8159C43.2375 56.8942 41.775 57.5 40.25 57.5H5.75C4.22501 57.5 2.76247 56.8942 1.68414 55.8159C0.605802 54.7375 0 53.275 0 51.75V8.62501C0 7.10001 0.605802 5.63748 1.68414 4.55914C2.76247 3.48081 4.22501 2.87501 5.75 2.87501H9.821ZM23 34.5H14.375C13.6125 34.5 12.8812 34.8029 12.3421 35.3421C11.8029 35.8812 11.5 36.6125 11.5 37.375C11.5 38.1375 11.8029 38.8688 12.3421 39.4079C12.8812 39.9471 13.6125 40.25 14.375 40.25H23C23.7625 40.25 24.4938 39.9471 25.0329 39.4079C25.5721 38.8688 25.875 38.1375 25.875 37.375C25.875 36.6125 25.5721 35.8812 25.0329 35.3421C24.4938 34.8029 23.7625 34.5 23 34.5ZM31.625 23H14.375C13.6422 23.0008 12.9374 23.2814 12.4046 23.7844C11.8717 24.2875 11.5511 24.975 11.5081 25.7065C11.4652 26.438 11.7032 27.1583 12.1735 27.7203C12.6438 28.2822 13.311 28.6433 14.0386 28.7299L14.375 28.75H31.625C32.3875 28.75 33.1188 28.4471 33.6579 27.9079C34.1971 27.3688 34.5 26.6375 34.5 25.875C34.5 25.1125 34.1971 24.3812 33.6579 23.8421C33.1188 23.3029 32.3875 23 31.625 23ZM23 9.33315e-06C24.2138 -0.00177915 25.4142 0.253492 26.5222 0.749023C27.6302 1.24455 28.6207 1.96911 29.4285 2.87501C30.659 4.24926 31.4525 6.01738 31.5991 7.96951L31.625 8.62501H14.375C14.375 6.54063 15.1139 4.62876 16.3444 3.13951L16.5715 2.87501C18.1527 1.10976 20.447 9.33315e-06 23 9.33315e-06Z" fill="#959595"/>
</svg>
